<svg width="24" height="52" viewBox="0 0 24 52" fill="none" xmlns="http://www.w3.org/2000/svg">
<path d="M18.8722 49.9465C22.1251 47.6443 23.2956 43.5341 22.9591 41.144C22.6226 38.7539 21.4826 37.294 20.4048 36.2712C19.3269 35.2485 16.2381 33.8989 12.8991 34.385V33.6384H3.31054L3.15351 44.9165C4.61792 47.8603 6.19276 49.5274 9.12661 50.8503C12.0605 52.1732 15.9349 51.8744 18.8722 49.9465Z" fill="url(#paint0_linear_2163_8741)" stroke="#252424" stroke-width="0.201453"/>
<circle cx="6.87113" cy="6.87113" r="6.65528" transform="matrix(0 -1 -1 0 21.1367 47.8721)" fill="#858484" stroke="#252424" stroke-width="0.431685"/>
<path d="M1.4252 33.6416H13.4111V33.2151H1.4252V33.6416Z" fill="#00339E" stroke="#252424" stroke-width="0.143895"/>
<path d="M8.99531 26.4741L12.7979 33.1748H2.14141L1.56511 26.6182L8.99531 26.4741Z" fill="url(#paint1_linear_2163_8741)" stroke="#252424" stroke-width="0.201453"/>
<path d="M0.823997 49.0938H3.21154L3.31445 33.1746H1.00925L0.823997 49.0938Z" fill="#858484" stroke="#252424" stroke-width="0.201453"/>
<path d="M0.330953 49.7524H0.811984L1.001 32.6242H0.515443L0.330953 49.7524Z" fill="#858484" stroke="#252424" stroke-width="0.201453"/>
<path d="M17.745 40.183C17.7452 40.1915 17.7451 40.1999 17.7449 40.2079C17.7423 40.3151 17.7053 40.3751 17.6255 40.3594C16.8778 40.1737 16.1052 40.1511 15.4226 40.4495C15.3192 40.2242 15.1497 40.0352 14.9388 39.908C15.3645 39.3945 15.9191 38.8782 16.3527 38.5503C16.9652 38.087 17.7334 39.6419 17.7449 40.183L17.745 40.183ZM17.6672 41.9246C17.6769 42.6339 16.6074 43.8873 16.4854 43.5306C16.2723 42.7899 15.9053 42.1092 15.3051 41.6672C15.4448 41.472 15.5286 41.2345 15.533 40.9781C16.1905 41.0901 16.915 41.3122 17.4158 41.5238C17.5921 41.5982 17.6647 41.7437 17.6672 41.9246ZM15.4748 37.7279C15.4745 37.7473 15.4663 37.7669 15.4492 37.7864C14.9148 38.3409 14.509 38.9984 14.4259 39.7385C14.3875 39.7349 14.3486 39.7328 14.3092 39.7328C14.0938 39.7328 13.8912 39.7892 13.7151 39.8876C13.4832 39.2621 13.3133 38.5236 13.2461 37.984C13.1361 37.1003 15.4808 37.3923 15.4748 37.7279ZM15.3759 43.9948C15.3669 44.8482 12.8653 44.4769 13.1691 44.1288C13.7038 43.574 14.1097 42.9162 14.1926 42.1756C14.231 42.1793 14.2699 42.1813 14.3092 42.1813C14.5244 42.1813 14.7269 42.1251 14.9029 42.0269C15.135 42.6525 15.305 43.3914 15.3722 43.9312C15.3749 43.9531 15.3762 43.9743 15.3759 43.9948ZM14.6821 40.9571C14.6821 41.1649 14.5171 41.3299 14.3092 41.3299C14.1014 41.3299 13.9364 41.1649 13.9364 40.9571C13.9364 40.7492 14.1014 40.5842 14.3092 40.5842C14.5171 40.5842 14.6821 40.7492 14.6821 40.9571ZM13.6801 42.0065C13.2543 42.5202 12.6993 43.0369 12.2655 43.365C11.5141 43.9333 10.5286 41.4647 10.9928 41.5559C11.7407 41.7416 12.5134 41.7641 13.1963 41.4655C13.2997 41.6906 13.4693 41.8794 13.6801 42.0065ZM13.3128 40.2478C13.1733 40.4431 13.0897 40.6807 13.0855 40.9372C12.4279 40.8252 11.7033 40.6031 11.2025 40.3915C10.3347 40.0249 11.9797 37.9371 12.1328 38.3847C12.346 39.1253 12.7128 39.8057 13.3128 40.2478Z" fill="#252424"/>
<ellipse cx="0.831077" cy="0.831089" rx="0.831077" ry="0.831089" transform="matrix(0 -1 -1 0 15.1416 41.7881)" fill="#252424"/>
<circle cx="5.80637" cy="5.80637" r="5.75099" transform="matrix(0 -1 -1 0 20.1592 46.8047)" stroke="#252424" stroke-width="0.110765"/>
<circle cx="5.12685" cy="5.12685" r="5.07147" transform="matrix(0 -1 -1 0 19.4805 46.126)" stroke="#252424" stroke-width="0.110765"/>
<circle cx="4.38838" cy="4.38838" r="4.333" transform="matrix(0 -1 -1 0 18.7412 45.3872)" stroke="#252424" stroke-width="0.110765"/>
<circle cx="3.59091" cy="3.59091" r="3.53553" transform="matrix(0 -1 -1 0 17.9443 44.5898)" stroke="#252424" stroke-width="0.110765"/>
<line y1="-0.0553825" x2="13.7452" y2="-0.0553825" transform="matrix(0 1 1 0 14.3535 34.127)" stroke="#252424" stroke-width="0.110765"/>
<line y1="-0.0553825" x2="13.393" y2="-0.0553825" transform="matrix(1 -1.90182e-08 -1.90182e-08 -1 7.65625 40.999)" stroke="#252424" stroke-width="0.110765"/>
<defs>
<linearGradient id="paint0_linear_2163_8741" x1="23.0146" y1="42.6488" x2="3.15351" y2="42.6488" gradientUnits="userSpaceOnUse">
<stop stop-color="#00339E"/>
<stop offset="1" stop-color="#134BC2"/>
</linearGradient>
<linearGradient id="paint1_linear_2163_8741" x1="12.7979" y1="29.8245" x2="1.56511" y2="29.8245" gradientUnits="userSpaceOnUse">
<stop stop-color="#00339E"/>
<stop offset="1" stop-color="#00339E"/>
</linearGradient>
</defs>
</svg>
