<svg width="41" height="53" viewBox="0 0 41 53" fill="none" xmlns="http://www.w3.org/2000/svg">
<path d="M19.5568 49.9465C22.8097 47.6443 23.9801 43.5341 23.6436 41.144C23.3071 38.7539 22.1672 37.294 21.0893 36.2712C20.0115 35.2485 16.9226 33.8989 13.5837 34.385V33.6384H3.99511L3.83808 44.9165C5.30249 47.8603 6.87733 49.5274 9.81118 50.8503C12.745 52.1732 16.6194 51.8744 19.5568 49.9465Z" fill="url(#paint0_linear_2227_7132)" stroke="#252424" stroke-width="0.201453"/>
<circle cx="6.87113" cy="6.87113" r="6.65528" transform="matrix(0 -1 -1 0 21.8213 47.8721)" fill="#858484" stroke="#252424" stroke-width="0.431685"/>
<path d="M2.10977 33.6416H14.0957V33.2151H2.10977V33.6416Z" fill="#00339E" stroke="#252424" stroke-width="0.143895"/>
<path d="M9.67988 26.4741L13.4824 33.1748H2.82598L2.24968 26.6182L9.67988 26.4741Z" fill="url(#paint1_linear_2227_7132)" stroke="#252424" stroke-width="0.201453"/>
<path d="M1.50857 49.0938H3.89611L3.99902 33.1746H1.69382L1.50857 49.0938Z" fill="#858484" stroke="#252424" stroke-width="0.201453"/>
<path d="M1.01552 49.7524H1.49655L1.68557 32.6242H1.20001L1.01552 49.7524Z" fill="#858484" stroke="#252424" stroke-width="0.201453"/>
<path d="M18.4296 40.183C18.4297 40.1915 18.4297 40.1999 18.4295 40.2079C18.4269 40.3151 18.3899 40.375 18.3101 40.3594C17.5624 40.1737 16.7898 40.1511 16.1071 40.4495C16.0038 40.2242 15.8343 40.0352 15.6234 39.908C16.0491 39.3945 16.6037 38.8782 17.0373 38.5503C17.6498 38.087 18.4179 39.6419 18.4295 40.183L18.4296 40.183ZM18.3517 41.9246C18.3615 42.6339 17.292 43.8873 17.17 43.5306C16.9568 42.7899 16.5899 42.1092 15.9896 41.6672C16.1293 41.472 16.2132 41.2345 16.2175 40.9781C16.8751 41.0901 17.5996 41.3122 18.1004 41.5238C18.2767 41.5982 18.3493 41.7437 18.3517 41.9246ZM16.1594 37.7279C16.159 37.7473 16.1508 37.7669 16.1338 37.7864C15.5993 38.3409 15.1936 38.9984 15.1105 39.7385C15.072 39.7349 15.0332 39.7328 14.9938 39.7328C14.7784 39.7328 14.5758 39.7892 14.3996 39.8876C14.1678 39.2621 13.9979 38.5236 13.9307 37.984C13.8206 37.1003 16.1654 37.3923 16.1594 37.7279ZM16.0605 43.9948C16.0515 44.8482 13.5499 44.4769 13.8536 44.1288C14.3884 43.574 14.7943 42.9162 14.8771 42.1756C14.9156 42.1793 14.9545 42.1813 14.9938 42.1813C15.209 42.1813 15.4114 42.1251 15.5875 42.0269C15.8195 42.6525 15.9895 43.3914 16.0568 43.9312C16.0595 43.9531 16.0607 43.9743 16.0605 43.9948ZM15.3667 40.9571C15.3667 41.1649 15.2016 41.3299 14.9938 41.3299C14.786 41.3299 14.621 41.1649 14.621 40.9571C14.621 40.7492 14.786 40.5842 14.9938 40.5842C15.2016 40.5842 15.3667 40.7492 15.3667 40.9571ZM14.3647 42.0065C13.9389 42.5202 13.3839 43.0369 12.9501 43.365C12.1987 43.9333 11.2131 41.4647 11.6773 41.5559C12.4252 41.7416 13.198 41.7641 13.8808 41.4655C13.9843 41.6906 14.1539 41.8794 14.3647 42.0065ZM13.9974 40.2478C13.8579 40.4431 13.7742 40.6807 13.7701 40.9372C13.1124 40.8252 12.3879 40.6031 11.887 40.3915C11.0192 40.0249 12.6643 37.9371 12.8174 38.3847C13.0305 39.1253 13.3974 39.8057 13.9974 40.2478Z" fill="#252424"/>
<ellipse cx="0.831077" cy="0.831089" rx="0.831077" ry="0.831089" transform="matrix(0 -1 -1 0 15.8262 41.7881)" fill="#252424"/>
<circle cx="5.80637" cy="5.80637" r="5.75099" transform="matrix(0 -1 -1 0 20.8438 46.8047)" stroke="#252424" stroke-width="0.110765"/>
<circle cx="5.12685" cy="5.12685" r="5.07147" transform="matrix(0 -1 -1 0 20.165 46.126)" stroke="#252424" stroke-width="0.110765"/>
<circle cx="4.38838" cy="4.38838" r="4.333" transform="matrix(0 -1 -1 0 19.4258 45.3872)" stroke="#252424" stroke-width="0.110765"/>
<circle cx="3.59091" cy="3.59091" r="3.53553" transform="matrix(0 -1 -1 0 18.6289 44.5898)" stroke="#252424" stroke-width="0.110765"/>
<line y1="-0.0553825" x2="13.7452" y2="-0.0553825" transform="matrix(0 1 1 0 15.0381 34.127)" stroke="#252424" stroke-width="0.110765"/>
<line y1="-0.0553825" x2="13.393" y2="-0.0553825" transform="matrix(1 -1.90182e-08 -1.90182e-08 -1 8.34082 40.999)" stroke="#252424" stroke-width="0.110765"/>
<rect x="27.6992" y="32.3438" width="10.4346" height="10.4346" rx="0.717573" fill="url(#paint2_linear_2227_7132)"/>
<circle cx="32.9167" cy="37.5607" r="3.2734" fill="#F8C83D" stroke="#EABE40" stroke-width="0.358787"/>
<circle cx="32.9169" cy="37.5614" r="2.86171" fill="url(#paint3_linear_2227_7132)"/>
<circle cx="28.9225" cy="33.3258" r="0.458644" fill="#6E6E6F" fill-opacity="0.6"/>
<circle cx="37.0158" cy="33.3258" r="0.458644" fill="#6E6E6F" fill-opacity="0.6"/>
<circle cx="28.7423" cy="41.8825" r="0.458644" fill="#6E6E6F" fill-opacity="0.6"/>
<circle cx="37.194" cy="41.8825" r="0.458644" fill="#6E6E6F" fill-opacity="0.6"/>
<mask id="path-22-outside-1_2227_7132" maskUnits="userSpaceOnUse" x="26.9385" y="35.4741" width="14" height="17" fill="black">
<rect fill="white" x="26.9385" y="35.4741" width="14" height="17"/>
<path fill-rule="evenodd" clip-rule="evenodd" d="M31.7104 46.395C31.7104 46.3663 31.7113 46.3379 31.7131 46.3096L31.7408 37.5136C31.7408 36.9395 32.2062 36.4741 32.7804 36.4741C33.3545 36.4741 33.8199 36.9395 33.8199 37.5136L33.8079 41.315C33.8776 40.8087 34.3121 40.4187 34.8376 40.4187C35.4117 40.4187 35.8771 40.8841 35.8771 41.4582L35.8766 41.9735C35.8827 41.4045 36.3457 40.9452 36.9161 40.9452C37.4902 40.9452 37.9556 41.4106 37.9556 41.9847L37.9528 45.0853L37.9538 45.0853L37.9559 42.7504C37.9559 42.1763 38.4213 41.7109 38.9954 41.7109C39.5695 41.7109 40.0349 42.1763 40.0349 42.7504L40.0317 46.2199C40.0397 46.2786 40.0439 46.3385 40.0439 46.3994V48.0826C40.0439 48.826 39.4664 49.433 38.7351 49.4802V51.659H32.7329V49.428C32.4856 49.3592 32.2657 49.2238 32.0938 49.0421L28.5264 47.3126C28.0088 47.0603 27.7914 46.4383 28.0436 45.9208C28.2959 45.4032 28.9179 45.1857 29.4354 45.438L31.7104 46.5409V46.395Z"/>
</mask>
<path fill-rule="evenodd" clip-rule="evenodd" d="M31.7104 46.395C31.7104 46.3663 31.7113 46.3379 31.7131 46.3096L31.7408 37.5136C31.7408 36.9395 32.2062 36.4741 32.7804 36.4741C33.3545 36.4741 33.8199 36.9395 33.8199 37.5136L33.8079 41.315C33.8776 40.8087 34.3121 40.4187 34.8376 40.4187C35.4117 40.4187 35.8771 40.8841 35.8771 41.4582L35.8766 41.9735C35.8827 41.4045 36.3457 40.9452 36.9161 40.9452C37.4902 40.9452 37.9556 41.4106 37.9556 41.9847L37.9528 45.0853L37.9538 45.0853L37.9559 42.7504C37.9559 42.1763 38.4213 41.7109 38.9954 41.7109C39.5695 41.7109 40.0349 42.1763 40.0349 42.7504L40.0317 46.2199C40.0397 46.2786 40.0439 46.3385 40.0439 46.3994V48.0826C40.0439 48.826 39.4664 49.433 38.7351 49.4802V51.659H32.7329V49.428C32.4856 49.3592 32.2657 49.2238 32.0938 49.0421L28.5264 47.3126C28.0088 47.0603 27.7914 46.4383 28.0436 45.9208C28.2959 45.4032 28.9179 45.1857 29.4354 45.438L31.7104 46.5409V46.395Z" fill="#F8C83D"/>
<path d="M31.7131 46.3096L32.2102 46.3414L32.2111 46.3263L32.2112 46.3112L31.7131 46.3096ZM31.7408 37.5136L32.2389 37.5152V37.5136H31.7408ZM33.8199 37.5136L34.3179 37.5152V37.5136H33.8199ZM33.8079 41.315L33.3098 41.3134L34.3013 41.383L33.8079 41.315ZM35.8771 41.4582L36.3752 41.4587V41.4582H35.8771ZM35.8766 41.9735L35.3786 41.973L36.3747 41.9788L35.8766 41.9735ZM37.9556 41.9847L38.4537 41.9852V41.9847H37.9556ZM37.9528 45.0853L37.4547 45.0848L37.4543 45.5829L37.9523 45.5833L37.9528 45.0853ZM37.9538 45.0853L37.9533 45.5833L38.4514 45.5838L38.4518 45.0857L37.9538 45.0853ZM37.9559 42.7504L38.4539 42.7508V42.7504H37.9559ZM40.0349 42.7504L40.533 42.7508V42.7504H40.0349ZM40.0317 46.2199L39.5337 46.2195L39.5337 46.2534L39.5382 46.2871L40.0317 46.2199ZM38.7351 49.4802L38.703 48.9832L38.237 49.0132V49.4802H38.7351ZM38.7351 51.659V52.1571H39.2331V51.659H38.7351ZM32.7329 51.659H32.2348V52.1571H32.7329V51.659ZM32.7329 49.428H33.231V49.0496L32.8664 48.9482L32.7329 49.428ZM32.0938 49.0421L32.4556 48.6998L32.393 48.6337L32.3111 48.5939L32.0938 49.0421ZM28.5264 47.3126L28.3082 47.7603L28.3091 47.7607L28.5264 47.3126ZM28.0436 45.9208L27.5959 45.7026L27.5959 45.7026L28.0436 45.9208ZM29.4354 45.438L29.2172 45.8857L29.2182 45.8861L29.4354 45.438ZM31.7104 46.5409L31.4931 46.9891L32.2085 47.3359V46.5409H31.7104ZM31.2161 46.2778C31.2136 46.3166 31.2123 46.3557 31.2123 46.395H32.2085C32.2085 46.377 32.209 46.3591 32.2102 46.3414L31.2161 46.2778ZM31.2428 37.5121L31.2151 46.308L32.2112 46.3112L32.2389 37.5152L31.2428 37.5121ZM32.7804 35.9761C31.9312 35.9761 31.2428 36.6644 31.2428 37.5136H32.2389C32.2389 37.2146 32.4813 36.9722 32.7804 36.9722V35.9761ZM34.3179 37.5136C34.3179 36.6644 33.6295 35.9761 32.7804 35.9761V36.9722C33.0794 36.9722 33.3218 37.2146 33.3218 37.5136H34.3179ZM34.3059 41.3166L34.3179 37.5152L33.3218 37.5121L33.3098 41.3134L34.3059 41.3166ZM34.8376 39.9206C34.0599 39.9206 33.4177 40.4976 33.3145 41.247L34.3013 41.383C34.3375 41.1197 34.5643 40.9168 34.8376 40.9168V39.9206ZM36.3752 41.4582C36.3752 40.609 35.6868 39.9206 34.8376 39.9206V40.9168C35.1367 40.9168 35.3791 41.1592 35.3791 41.4582H36.3752ZM36.3747 41.9739L36.3752 41.4587L35.3791 41.4578L35.3786 41.973L36.3747 41.9739ZM36.9161 40.4472C36.0724 40.4472 35.3875 41.1266 35.3786 41.9682L36.3747 41.9788C36.3778 41.6825 36.619 41.4433 36.9161 41.4433V40.4472ZM38.4537 41.9847C38.4537 41.1355 37.7653 40.4472 36.9161 40.4472V41.4433C37.2151 41.4433 37.4575 41.6857 37.4575 41.9847H38.4537ZM38.4508 45.0857L38.4537 41.9852L37.4575 41.9843L37.4547 45.0848L38.4508 45.0857ZM37.9542 44.5872L37.9533 44.5872L37.9523 45.5833L37.9533 45.5833L37.9542 44.5872ZM37.4578 42.7499L37.4557 45.0848L38.4518 45.0857L38.4539 42.7508L37.4578 42.7499ZM38.9954 41.2128C38.1462 41.2128 37.4578 41.9012 37.4578 42.7504H38.4539C38.4539 42.4513 38.6963 42.2089 38.9954 42.2089V41.2128ZM40.533 42.7504C40.533 41.9012 39.8446 41.2128 38.9954 41.2128V42.2089C39.2944 42.2089 39.5368 42.4513 39.5368 42.7504H40.533ZM40.5298 46.2204L40.533 42.7508L39.5368 42.7499L39.5337 46.2195L40.5298 46.2204ZM40.5419 46.3994C40.5419 46.316 40.5363 46.2336 40.5253 46.1527L39.5382 46.2871C39.5432 46.3236 39.5458 46.361 39.5458 46.3994H40.5419ZM40.5419 48.0826V46.3994H39.5458V48.0826H40.5419ZM38.7671 49.9772C39.7589 49.9133 40.5419 49.0902 40.5419 48.0826H39.5458C39.5458 48.5617 39.1739 48.9528 38.703 48.9832L38.7671 49.9772ZM39.2331 51.659V49.4802H38.237V51.659H39.2331ZM32.7329 52.1571H38.7351V51.1609H32.7329V52.1571ZM32.2348 49.428V51.659H33.231V49.428H32.2348ZM31.7321 49.3845C31.9646 49.6301 32.2628 49.8142 32.5994 49.9078L32.8664 48.9482C32.7084 48.9042 32.5668 48.8174 32.4556 48.6998L31.7321 49.3845ZM28.3091 47.7607L31.8765 49.4903L32.3111 48.5939L28.7437 46.8644L28.3091 47.7607ZM27.5959 45.7026C27.222 46.4697 27.5457 47.3886 28.3082 47.7603L28.7446 46.8649C28.472 46.732 28.3607 46.407 28.4913 46.139L27.5959 45.7026ZM29.6537 44.9903C28.8865 44.6163 27.9676 44.94 27.5959 45.7026L28.4913 46.139C28.6242 45.8663 28.9492 45.7551 29.2172 45.8857L29.6537 44.9903ZM31.9277 46.0928L29.6527 44.9898L29.2182 45.8861L31.4931 46.9891L31.9277 46.0928ZM31.2123 46.395V46.5409H32.2085V46.395H31.2123Z" fill="#988679" mask="url(#path-22-outside-1_2227_7132)"/>
<defs>
<linearGradient id="paint0_linear_2227_7132" x1="23.6992" y1="42.6488" x2="3.83808" y2="42.6488" gradientUnits="userSpaceOnUse">
<stop stop-color="#00339E"/>
<stop offset="1" stop-color="#134BC2"/>
</linearGradient>
<linearGradient id="paint1_linear_2227_7132" x1="13.4824" y1="29.8245" x2="2.24968" y2="29.8245" gradientUnits="userSpaceOnUse">
<stop stop-color="#00339E"/>
<stop offset="1" stop-color="#00339E"/>
</linearGradient>
<linearGradient id="paint2_linear_2227_7132" x1="32.9165" y1="32.3438" x2="32.9165" y2="42.7783" gradientUnits="userSpaceOnUse">
<stop stop-color="#7F7F80"/>
<stop offset="1" stop-color="#777777"/>
</linearGradient>
<linearGradient id="paint3_linear_2227_7132" x1="32.9169" y1="34.6997" x2="32.9169" y2="40.4231" gradientUnits="userSpaceOnUse">
<stop stop-color="#F4CE60"/>
<stop offset="1" stop-color="#E4B93B"/>
</linearGradient>
</defs>
</svg>
