<svg width="41" height="53" viewBox="0 0 41 53" fill="none" xmlns="http://www.w3.org/2000/svg">
<path d="M19.3009 49.9465C22.5538 47.6443 23.7243 43.5341 23.3878 41.144C23.0513 38.7539 21.9113 37.294 20.8335 36.2712C19.7556 35.2485 16.6668 33.8989 13.3278 34.385V33.6384H3.73925L3.58222 44.9165C5.04663 47.8603 6.62147 49.5274 9.55533 50.8503C12.4892 52.1732 16.3636 51.8744 19.3009 49.9465Z" fill="url(#paint0_linear_2227_7170)" stroke="#252424" stroke-width="0.201453"/>
<circle cx="6.87113" cy="6.87113" r="6.65528" transform="matrix(0 -1 -1 0 21.5674 47.8721)" fill="#858484" stroke="#252424" stroke-width="0.431685"/>
<path d="M1.85586 33.6416H13.8418V33.2151H1.85586V33.6416Z" fill="url(#paint1_linear_2227_7170)" stroke="#252424" stroke-width="0.143895"/>
<path d="M9.42402 26.4741L13.2266 33.1748H2.57012L1.99382 26.6182L9.42402 26.4741Z" fill="url(#paint2_linear_2227_7170)" stroke="#252424" stroke-width="0.201453"/>
<path d="M1.25271 49.0942H3.64026L3.74316 33.1751H1.43796L1.25271 49.0942Z" fill="#858484" stroke="#252424" stroke-width="0.201453"/>
<path d="M0.759664 49.7524H1.2407L1.42971 32.6242H0.944154L0.759664 49.7524Z" fill="#858484" stroke="#252424" stroke-width="0.201453"/>
<path d="M18.1737 40.1834C18.1739 40.192 18.1739 40.2004 18.1737 40.2084C18.171 40.3156 18.134 40.3755 18.0543 40.3599C17.3065 40.1742 16.534 40.1516 15.8513 40.45C15.748 40.2247 15.5784 40.0357 15.3675 39.9085C15.7932 39.395 16.3478 38.8787 16.7814 38.5508C17.3939 38.0875 18.1621 39.6423 18.1737 40.1835L18.1737 40.1834ZM18.0959 41.925C18.1056 42.6344 17.0362 43.8877 16.9141 43.5311C16.701 42.7904 16.334 42.1097 15.7338 41.6677C15.8735 41.4725 15.9573 41.235 15.9617 40.9786C16.6192 41.0906 17.3437 41.3127 17.8445 41.5243C18.0208 41.5987 18.0934 41.7442 18.0959 41.925ZM15.9035 37.7284C15.9032 37.7478 15.895 37.7674 15.878 37.7869C15.3435 38.3414 14.9378 38.9989 14.8546 39.739C14.8162 39.7354 14.7773 39.7333 14.738 39.7333C14.5225 39.7333 14.3199 39.7897 14.1438 39.8881C13.9119 39.2626 13.742 38.5241 13.6748 37.9845C13.5648 37.1008 15.9095 37.3928 15.9035 37.7284ZM15.8046 43.9953C15.7957 44.8487 13.294 44.4774 13.5978 44.1293C14.1325 43.5745 14.5384 42.9166 14.6213 42.1761C14.6597 42.1798 14.6986 42.1818 14.738 42.1818C14.9532 42.1818 15.1556 42.1256 15.3316 42.0273C15.5637 42.653 15.7337 43.3919 15.8009 43.9317C15.8036 43.9536 15.8049 43.9748 15.8046 43.9953ZM15.1108 40.9576C15.1108 41.1654 14.9458 41.3304 14.738 41.3304C14.5301 41.3304 14.3651 41.1654 14.3651 40.9576C14.3651 40.7497 14.5301 40.5847 14.738 40.5847C14.9458 40.5847 15.1108 40.7497 15.1108 40.9576ZM14.1089 42.0069C13.683 42.5207 13.128 43.0374 12.6942 43.3655C11.9428 43.9338 10.9573 41.4652 11.4215 41.5564C12.1694 41.7421 12.9421 41.7646 13.625 41.466C13.7284 41.6911 13.898 41.8799 14.1089 42.0069ZM13.7415 40.2483C13.602 40.4436 13.5184 40.6812 13.5142 40.9377C12.8566 40.8257 12.132 40.6035 11.6312 40.392C10.7634 40.0254 12.4084 37.9376 12.5615 38.3852C12.7747 39.1258 13.1415 39.8062 13.7415 40.2483Z" fill="#252424"/>
<ellipse cx="0.831077" cy="0.831089" rx="0.831077" ry="0.831089" transform="matrix(0 -1 -1 0 15.5684 41.7886)" fill="#252424"/>
<circle cx="5.80637" cy="5.80637" r="5.75099" transform="matrix(0 -1 -1 0 20.5898 46.8047)" stroke="#252424" stroke-width="0.110765"/>
<circle cx="5.12685" cy="5.12685" r="5.07147" transform="matrix(0 -1 -1 0 19.9102 46.126)" stroke="#252424" stroke-width="0.110765"/>
<circle cx="4.38838" cy="4.38838" r="4.333" transform="matrix(0 -1 -1 0 19.1719 45.3872)" stroke="#252424" stroke-width="0.110765"/>
<circle cx="3.59091" cy="3.59091" r="3.53553" transform="matrix(0 -1 -1 0 18.375 44.5898)" stroke="#252424" stroke-width="0.110765"/>
<line y1="-0.0553825" x2="13.7452" y2="-0.0553825" transform="matrix(0 1 1 0 14.7822 34.127)" stroke="#252424" stroke-width="0.110765"/>
<line y1="-0.0553825" x2="13.393" y2="-0.0553825" transform="matrix(1 -1.90182e-08 -1.90182e-08 -1 8.08691 40.999)" stroke="#252424" stroke-width="0.110765"/>
<rect x="27.4434" y="32.3438" width="10.4346" height="10.4346" rx="0.717573" fill="url(#paint3_linear_2227_7170)"/>
<circle cx="32.6608" cy="37.5607" r="3.2734" fill="#F8C83D" stroke="#EABE40" stroke-width="0.358787"/>
<circle cx="32.661" cy="37.5614" r="2.86171" fill="url(#paint4_linear_2227_7170)"/>
<circle cx="28.6667" cy="33.3258" r="0.458644" fill="#6E6E6F" fill-opacity="0.6"/>
<circle cx="36.7599" cy="33.3258" r="0.458644" fill="#6E6E6F" fill-opacity="0.6"/>
<circle cx="28.4865" cy="41.8825" r="0.458644" fill="#6E6E6F" fill-opacity="0.6"/>
<circle cx="36.9381" cy="41.8825" r="0.458644" fill="#6E6E6F" fill-opacity="0.6"/>
<mask id="path-22-outside-1_2227_7170" maskUnits="userSpaceOnUse" x="26.6826" y="35.4741" width="14" height="17" fill="black">
<rect fill="white" x="26.6826" y="35.4741" width="14" height="17"/>
<path fill-rule="evenodd" clip-rule="evenodd" d="M31.4545 46.395C31.4545 46.3663 31.4555 46.3379 31.4573 46.3096L31.485 37.5136C31.485 36.9395 31.9504 36.4741 32.5245 36.4741C33.0986 36.4741 33.564 36.9395 33.564 37.5136L33.552 41.315C33.6218 40.8087 34.0562 40.4187 34.5817 40.4187C35.1559 40.4187 35.6213 40.8841 35.6213 41.4582L35.6208 41.9735C35.6268 41.4045 36.0899 40.9452 36.6602 40.9452C37.2344 40.9452 37.6997 41.4106 37.6997 41.9847L37.6969 45.0853L37.6979 45.0853L37.7 42.7504C37.7 42.1763 38.1654 41.7109 38.7395 41.7109C39.3137 41.7109 39.779 42.1763 39.779 42.7504L39.7759 46.2199C39.7839 46.2786 39.788 46.3385 39.788 46.3994V48.0826C39.788 48.826 39.2106 49.433 38.4792 49.4802V51.659H32.477V49.428C32.2297 49.3592 32.0098 49.2238 31.8379 49.0421L28.2706 47.3126C27.753 47.0603 27.5355 46.4383 27.7878 45.9208C28.04 45.4032 28.662 45.1857 29.1796 45.438L31.4545 46.5409V46.395Z"/>
</mask>
<path fill-rule="evenodd" clip-rule="evenodd" d="M31.4545 46.395C31.4545 46.3663 31.4555 46.3379 31.4573 46.3096L31.485 37.5136C31.485 36.9395 31.9504 36.4741 32.5245 36.4741C33.0986 36.4741 33.564 36.9395 33.564 37.5136L33.552 41.315C33.6218 40.8087 34.0562 40.4187 34.5817 40.4187C35.1559 40.4187 35.6213 40.8841 35.6213 41.4582L35.6208 41.9735C35.6268 41.4045 36.0899 40.9452 36.6602 40.9452C37.2344 40.9452 37.6997 41.4106 37.6997 41.9847L37.6969 45.0853L37.6979 45.0853L37.7 42.7504C37.7 42.1763 38.1654 41.7109 38.7395 41.7109C39.3137 41.7109 39.779 42.1763 39.779 42.7504L39.7759 46.2199C39.7839 46.2786 39.788 46.3385 39.788 46.3994V48.0826C39.788 48.826 39.2106 49.433 38.4792 49.4802V51.659H32.477V49.428C32.2297 49.3592 32.0098 49.2238 31.8379 49.0421L28.2706 47.3126C27.753 47.0603 27.5355 46.4383 27.7878 45.9208C28.04 45.4032 28.662 45.1857 29.1796 45.438L31.4545 46.5409V46.395Z" fill="#F8C83D"/>
<path d="M31.4573 46.3096L31.9543 46.3414L31.9553 46.3263L31.9553 46.3112L31.4573 46.3096ZM31.485 37.5136L31.983 37.5152V37.5136H31.485ZM33.564 37.5136L34.0621 37.5152V37.5136H33.564ZM33.552 41.315L33.054 41.3134L34.0454 41.383L33.552 41.315ZM35.6213 41.4582L36.1193 41.4587V41.4582H35.6213ZM35.6208 41.9735L35.1227 41.973L36.1188 41.9788L35.6208 41.9735ZM37.6997 41.9847L38.1978 41.9852V41.9847H37.6997ZM37.6969 45.0853L37.1989 45.0848L37.1984 45.5829L37.6964 45.5833L37.6969 45.0853ZM37.6979 45.0853L37.6974 45.5833L38.1955 45.5838L38.196 45.0857L37.6979 45.0853ZM37.7 42.7504L38.1981 42.7508V42.7504H37.7ZM39.779 42.7504L40.2771 42.7508V42.7504H39.779ZM39.7759 46.2199L39.2778 46.2195L39.2778 46.2534L39.2824 46.2871L39.7759 46.2199ZM38.4792 49.4802L38.4472 48.9832L37.9812 49.0132V49.4802H38.4792ZM38.4792 51.659V52.1571H38.9773V51.659H38.4792ZM32.477 51.659H31.979V52.1571H32.477V51.659ZM32.477 49.428H32.9751V49.0496L32.6106 48.9482L32.477 49.428ZM31.8379 49.0421L32.1997 48.6998L32.1371 48.6337L32.0552 48.5939L31.8379 49.0421ZM28.2706 47.3126L28.0523 47.7603L28.0533 47.7607L28.2706 47.3126ZM27.7878 45.9208L27.3401 45.7026L27.3401 45.7026L27.7878 45.9208ZM29.1796 45.438L28.9614 45.8857L28.9623 45.8861L29.1796 45.438ZM31.4545 46.5409L31.2373 46.9891L31.9526 47.3359V46.5409H31.4545ZM30.9602 46.2778C30.9577 46.3166 30.9565 46.3557 30.9565 46.395H31.9526C31.9526 46.377 31.9532 46.3591 31.9543 46.3414L30.9602 46.2778ZM30.9869 37.5121L30.9592 46.308L31.9553 46.3112L31.983 37.5152L30.9869 37.5121ZM32.5245 35.9761C31.6753 35.9761 30.9869 36.6644 30.9869 37.5136H31.983C31.983 37.2146 32.2254 36.9722 32.5245 36.9722V35.9761ZM34.0621 37.5136C34.0621 36.6644 33.3737 35.9761 32.5245 35.9761V36.9722C32.8235 36.9722 33.0659 37.2146 33.0659 37.5136H34.0621ZM34.0501 41.3166L34.0621 37.5152L33.0659 37.5121L33.054 41.3134L34.0501 41.3166ZM34.5817 39.9206C33.804 39.9206 33.1619 40.4976 33.0586 41.247L34.0454 41.383C34.0817 41.1197 34.3084 40.9168 34.5817 40.9168V39.9206ZM36.1193 41.4582C36.1193 40.609 35.4309 39.9206 34.5817 39.9206V40.9168C34.8808 40.9168 35.1232 41.1592 35.1232 41.4582H36.1193ZM36.1188 41.9739L36.1193 41.4587L35.1232 41.4578L35.1227 41.973L36.1188 41.9739ZM36.6602 40.4472C35.8166 40.4472 35.1317 41.1266 35.1228 41.9682L36.1188 41.9788C36.122 41.6825 36.3632 41.4433 36.6602 41.4433V40.4472ZM38.1978 41.9847C38.1978 41.1355 37.5094 40.4472 36.6602 40.4472V41.4433C36.9593 41.4433 37.2017 41.6857 37.2017 41.9847H38.1978ZM38.195 45.0857L38.1978 41.9852L37.2017 41.9843L37.1989 45.0848L38.195 45.0857ZM37.6984 44.5872L37.6974 44.5872L37.6964 45.5833L37.6974 45.5833L37.6984 44.5872ZM37.202 42.7499L37.1998 45.0848L38.196 45.0857L38.1981 42.7508L37.202 42.7499ZM38.7395 41.2128C37.8903 41.2128 37.202 41.9012 37.202 42.7504H38.1981C38.1981 42.4513 38.4405 42.2089 38.7395 42.2089V41.2128ZM40.2771 42.7504C40.2771 41.9012 39.5887 41.2128 38.7395 41.2128V42.2089C39.0386 42.2089 39.281 42.4513 39.281 42.7504H40.2771ZM40.2739 46.2204L40.2771 42.7508L39.281 42.7499L39.2778 46.2195L40.2739 46.2204ZM40.2861 46.3994C40.2861 46.316 40.2804 46.2336 40.2694 46.1527L39.2824 46.2871C39.2873 46.3236 39.2899 46.361 39.2899 46.3994H40.2861ZM40.2861 48.0826V46.3994H39.2899V48.0826H40.2861ZM38.5113 49.9772C39.5031 49.9133 40.2861 49.0902 40.2861 48.0826H39.2899C39.2899 48.5617 38.9181 48.9528 38.4472 48.9832L38.5113 49.9772ZM38.9773 51.659V49.4802H37.9812V51.659H38.9773ZM32.477 52.1571H38.4792V51.1609H32.477V52.1571ZM31.979 49.428V51.659H32.9751V49.428H31.979ZM31.4762 49.3845C31.7087 49.6301 32.0069 49.8142 32.3435 49.9078L32.6106 48.9482C32.4526 48.9042 32.311 48.8174 32.1997 48.6998L31.4762 49.3845ZM28.0533 47.7607L31.6207 49.4903L32.0552 48.5939L28.4878 46.8644L28.0533 47.7607ZM27.3401 45.7026C26.9661 46.4697 27.2898 47.3886 28.0523 47.7603L28.4888 46.8649C28.2161 46.732 28.1049 46.407 28.2355 46.139L27.3401 45.7026ZM29.3978 44.9903C28.6306 44.6163 27.7117 44.94 27.3401 45.7026L28.2355 46.139C28.3684 45.8663 28.6934 45.7551 28.9614 45.8857L29.3978 44.9903ZM31.6718 46.0928L29.3969 44.9898L28.9623 45.8861L31.2373 46.9891L31.6718 46.0928ZM30.9565 46.395V46.5409H31.9526V46.395H30.9565Z" fill="#988679" mask="url(#path-22-outside-1_2227_7170)"/>
<defs>
<linearGradient id="paint0_linear_2227_7170" x1="23.4434" y1="42.6488" x2="3.58222" y2="42.6488" gradientUnits="userSpaceOnUse">
<stop stop-color="#9D9D9D"/>
<stop offset="1" stop-color="#8F918E"/>
</linearGradient>
<linearGradient id="paint1_linear_2227_7170" x1="13.8418" y1="33.4283" x2="1.85586" y2="33.4283" gradientUnits="userSpaceOnUse">
<stop stop-color="#424541"/>
<stop offset="1" stop-color="#767976"/>
</linearGradient>
<linearGradient id="paint2_linear_2227_7170" x1="13.2266" y1="29.8245" x2="1.99382" y2="29.8245" gradientUnits="userSpaceOnUse">
<stop stop-color="#838782"/>
<stop offset="1" stop-color="#C5C7C5"/>
</linearGradient>
<linearGradient id="paint3_linear_2227_7170" x1="32.6607" y1="32.3438" x2="32.6607" y2="42.7783" gradientUnits="userSpaceOnUse">
<stop stop-color="#7F7F80"/>
<stop offset="1" stop-color="#777777"/>
</linearGradient>
<linearGradient id="paint4_linear_2227_7170" x1="32.661" y1="34.6997" x2="32.661" y2="40.4231" gradientUnits="userSpaceOnUse">
<stop stop-color="#F4CE60"/>
<stop offset="1" stop-color="#E4B93B"/>
</linearGradient>
</defs>
</svg>
