<svg width="24" height="52" viewBox="0 0 24 52" fill="none" xmlns="http://www.w3.org/2000/svg">
<path d="M19.5865 49.9465C22.8395 47.6443 24.0099 43.5341 23.6734 41.144C23.3369 38.7539 22.197 37.294 21.1191 36.2712C20.0413 35.2485 16.9524 33.8989 13.6135 34.385V33.6384H4.02489L3.86786 44.9165C5.33227 47.8603 6.90712 49.5274 9.84097 50.8503C12.7748 52.1732 16.6492 51.8744 19.5865 49.9465Z" fill="url(#paint0_linear_2163_8817)" stroke="#252424" stroke-width="0.201453"/>
<circle cx="6.87113" cy="6.87113" r="6.65528" transform="matrix(0 -1 -1 0 21.853 47.8721)" fill="#858484" stroke="#252424" stroke-width="0.431685"/>
<path d="M2.14151 33.6416H14.1274V33.2151H2.14151V33.6416Z" fill="url(#paint1_linear_2163_8817)" stroke="#252424" stroke-width="0.143895"/>
<path d="M9.70967 26.4741L13.5122 33.1748H2.85577L2.27947 26.6182L9.70967 26.4741Z" fill="url(#paint2_linear_2163_8817)" stroke="#252424" stroke-width="0.201453"/>
<path d="M1.53835 49.0942H3.9259L4.02881 33.1751H1.7236L1.53835 49.0942Z" fill="#858484" stroke="#252424" stroke-width="0.201453"/>
<path d="M1.04531 49.7524H1.52634L1.71536 32.6242H1.2298L1.04531 49.7524Z" fill="#858484" stroke="#252424" stroke-width="0.201453"/>
<path d="M18.4594 40.1834C18.4595 40.192 18.4595 40.2004 18.4593 40.2084C18.4566 40.3156 18.4197 40.3755 18.3399 40.3599C17.5922 40.1742 16.8196 40.1516 16.1369 40.45C16.0336 40.2247 15.8641 40.0357 15.6532 39.9085C16.0789 39.395 16.6335 38.8787 17.0671 38.5508C17.6796 38.0875 18.4477 39.6423 18.4593 40.1835L18.4594 40.1834ZM18.3815 41.925C18.3912 42.6344 17.3218 43.8877 17.1998 43.5311C16.9866 42.7904 16.6197 42.1097 16.0194 41.6677C16.1591 41.4725 16.2429 41.235 16.2473 40.9786C16.9049 41.0906 17.6294 41.3127 18.1302 41.5243C18.3065 41.5987 18.3791 41.7442 18.3815 41.925ZM16.1892 37.7284C16.1888 37.7478 16.1806 37.7674 16.1636 37.7869C15.6291 38.3414 15.2234 38.9989 15.1402 39.739C15.1018 39.7354 15.063 39.7333 15.0236 39.7333C14.8082 39.7333 14.6056 39.7897 14.4294 39.8881C14.1975 39.2626 14.0277 38.5241 13.9605 37.9845C13.8504 37.1008 16.1951 37.3928 16.1892 37.7284ZM16.0903 43.9953C16.0813 44.8487 13.5797 44.4774 13.8834 44.1293C14.4182 43.5745 14.8241 42.9166 14.9069 42.1761C14.9454 42.1798 14.9842 42.1818 15.0236 42.1818C15.2388 42.1818 15.4412 42.1256 15.6173 42.0273C15.8493 42.653 16.0193 43.3919 16.0865 43.9317C16.0893 43.9536 16.0905 43.9748 16.0903 43.9953ZM15.3965 40.9576C15.3965 41.1654 15.2314 41.3304 15.0236 41.3304C14.8158 41.3304 14.6507 41.1654 14.6507 40.9576C14.6507 40.7497 14.8158 40.5847 15.0236 40.5847C15.2314 40.5847 15.3965 40.7497 15.3965 40.9576ZM14.3945 42.0069C13.9687 42.5207 13.4137 43.0374 12.9799 43.3655C12.2285 43.9338 11.2429 41.4652 11.7071 41.5564C12.455 41.7421 13.2278 41.7646 13.9106 41.466C14.0141 41.6911 14.1837 41.8799 14.3945 42.0069ZM14.0272 40.2483C13.8876 40.4436 13.804 40.6812 13.7999 40.9377C13.1422 40.8257 12.4177 40.6035 11.9168 40.392C11.049 40.0254 12.6941 37.9376 12.8472 38.3852C13.0603 39.1258 13.4272 39.8062 14.0272 40.2483Z" fill="#252424"/>
<ellipse cx="0.831077" cy="0.831089" rx="0.831077" ry="0.831089" transform="matrix(0 -1 -1 0 15.854 41.7886)" fill="#252424"/>
<circle cx="5.80637" cy="5.80637" r="5.75099" transform="matrix(0 -1 -1 0 20.8755 46.8047)" stroke="#252424" stroke-width="0.110765"/>
<circle cx="5.12685" cy="5.12685" r="5.07147" transform="matrix(0 -1 -1 0 20.1958 46.126)" stroke="#252424" stroke-width="0.110765"/>
<circle cx="4.38838" cy="4.38838" r="4.333" transform="matrix(0 -1 -1 0 19.4575 45.3872)" stroke="#252424" stroke-width="0.110765"/>
<circle cx="3.59091" cy="3.59091" r="3.53553" transform="matrix(0 -1 -1 0 18.6606 44.5898)" stroke="#252424" stroke-width="0.110765"/>
<line y1="-0.0553825" x2="13.7452" y2="-0.0553825" transform="matrix(0 1 1 0 15.0679 34.127)" stroke="#252424" stroke-width="0.110765"/>
<line y1="-0.0553825" x2="13.393" y2="-0.0553825" transform="matrix(1 -1.90182e-08 -1.90182e-08 -1 8.37256 40.999)" stroke="#252424" stroke-width="0.110765"/>
<defs>
<linearGradient id="paint0_linear_2163_8817" x1="23.729" y1="42.6488" x2="3.86786" y2="42.6488" gradientUnits="userSpaceOnUse">
<stop stop-color="#9D9D9D"/>
<stop offset="1" stop-color="#8F918E"/>
</linearGradient>
<linearGradient id="paint1_linear_2163_8817" x1="14.1274" y1="33.4283" x2="2.14151" y2="33.4283" gradientUnits="userSpaceOnUse">
<stop stop-color="#424541"/>
<stop offset="1" stop-color="#767976"/>
</linearGradient>
<linearGradient id="paint2_linear_2163_8817" x1="13.5122" y1="29.8245" x2="2.27947" y2="29.8245" gradientUnits="userSpaceOnUse">
<stop stop-color="#838782"/>
<stop offset="1" stop-color="#C5C7C5"/>
</linearGradient>
</defs>
</svg>
