<svg width="41" height="53" viewBox="0 0 41 53" fill="none" xmlns="http://www.w3.org/2000/svg">
<path d="M19.2711 49.9465C22.524 47.6443 23.6945 43.5341 23.358 41.144C23.0215 38.7539 21.8816 37.294 20.8037 36.2712C19.7258 35.2485 16.637 33.8989 13.298 34.385V33.6384H3.70947L3.55243 44.9165C5.01684 47.8603 6.59169 49.5274 9.52554 50.8503C12.4594 52.1732 16.3338 51.8744 19.2711 49.9465Z" fill="url(#paint0_linear_2163_8723)" stroke="#252424" stroke-width="0.201453"/>
<circle cx="6.87113" cy="6.87113" r="6.65528" transform="matrix(0 -1 -1 0 21.5376 47.8721)" fill="#858484" stroke="#252424" stroke-width="0.431685"/>
<path d="M1.82608 33.6416H13.812V33.2151H1.82608V33.6416Z" fill="url(#paint1_linear_2163_8723)" stroke="#252424" stroke-width="0.143895"/>
<path d="M9.39424 26.4741L13.1968 33.1748H2.54034L1.96404 26.6182L9.39424 26.4741Z" fill="url(#paint2_linear_2163_8723)" stroke="#252424" stroke-width="0.201453"/>
<path d="M1.22292 49.0942H3.61047L3.71338 33.1751H1.40817L1.22292 49.0942Z" fill="#858484" stroke="#252424" stroke-width="0.201453"/>
<path d="M0.729879 49.7524H1.21091L1.39993 32.6242H0.914369L0.729879 49.7524Z" fill="#858484" stroke="#252424" stroke-width="0.201453"/>
<path d="M18.1439 40.1834C18.1441 40.192 18.1441 40.2004 18.1439 40.2084C18.1412 40.3156 18.1043 40.3755 18.0245 40.3599C17.2767 40.1742 16.5042 40.1516 15.8215 40.45C15.7182 40.2247 15.5486 40.0357 15.3377 39.9085C15.7634 39.395 16.318 38.8787 16.7516 38.5508C17.3642 38.0875 18.1323 39.6423 18.1439 40.1835L18.1439 40.1834ZM18.0661 41.925C18.0758 42.6344 17.0064 43.8877 16.8844 43.5311C16.6712 42.7904 16.3042 42.1097 15.704 41.6677C15.8437 41.4725 15.9275 41.235 15.9319 40.9786C16.5894 41.0906 17.314 41.3127 17.8148 41.5243C17.991 41.5987 18.0636 41.7442 18.0661 41.925ZM15.8737 37.7284C15.8734 37.7478 15.8652 37.7674 15.8482 37.7869C15.3137 38.3414 14.908 38.9989 14.8248 39.739C14.7864 39.7354 14.7475 39.7333 14.7082 39.7333C14.4927 39.7333 14.2902 39.7897 14.114 39.8881C13.8821 39.2626 13.7122 38.5241 13.645 37.9845C13.535 37.1008 15.8797 37.3928 15.8737 37.7284ZM15.7749 43.9953C15.7659 44.8487 13.2642 44.4774 13.568 44.1293C14.1027 43.5745 14.5086 42.9166 14.5915 42.1761C14.6299 42.1798 14.6688 42.1818 14.7082 42.1818C14.9234 42.1818 15.1258 42.1256 15.3019 42.0273C15.5339 42.653 15.7039 43.3919 15.7711 43.9317C15.7738 43.9536 15.7751 43.9748 15.7749 43.9953ZM15.081 40.9576C15.081 41.1654 14.916 41.3304 14.7082 41.3304C14.5003 41.3304 14.3353 41.1654 14.3353 40.9576C14.3353 40.7497 14.5003 40.5847 14.7082 40.5847C14.916 40.5847 15.081 40.7497 15.081 40.9576ZM14.0791 42.0069C13.6533 42.5207 13.0983 43.0374 12.6644 43.3655C11.913 43.9338 10.9275 41.4652 11.3917 41.5564C12.1396 41.7421 12.9123 41.7646 13.5952 41.466C13.6986 41.6911 13.8682 41.8799 14.0791 42.0069ZM13.7118 40.2483C13.5722 40.4436 13.4886 40.6812 13.4844 40.9377C12.8268 40.8257 12.1022 40.6035 11.6014 40.392C10.7336 40.0254 12.3786 37.9376 12.5317 38.3852C12.7449 39.1258 13.1118 39.8062 13.7118 40.2483Z" fill="#252424"/>
<ellipse cx="0.831077" cy="0.831089" rx="0.831077" ry="0.831089" transform="matrix(0 -1 -1 0 15.5386 41.7886)" fill="#252424"/>
<circle cx="5.80637" cy="5.80637" r="5.75099" transform="matrix(0 -1 -1 0 20.5601 46.8047)" stroke="#252424" stroke-width="0.110765"/>
<circle cx="5.12685" cy="5.12685" r="5.07147" transform="matrix(0 -1 -1 0 19.8804 46.126)" stroke="#252424" stroke-width="0.110765"/>
<circle cx="4.38838" cy="4.38838" r="4.333" transform="matrix(0 -1 -1 0 19.1421 45.3872)" stroke="#252424" stroke-width="0.110765"/>
<circle cx="3.59091" cy="3.59091" r="3.53553" transform="matrix(0 -1 -1 0 18.3452 44.5898)" stroke="#252424" stroke-width="0.110765"/>
<line y1="-0.0553825" x2="13.7452" y2="-0.0553825" transform="matrix(0 1 1 0 14.7524 34.127)" stroke="#252424" stroke-width="0.110765"/>
<line y1="-0.0553825" x2="13.393" y2="-0.0553825" transform="matrix(1 -1.90182e-08 -1.90182e-08 -1 8.05713 40.999)" stroke="#252424" stroke-width="0.110765"/>
<rect x="27.4136" y="32.3438" width="10.4346" height="10.4346" rx="0.717573" fill="url(#paint3_linear_2163_8723)"/>
<circle cx="32.631" cy="37.5607" r="3.2734" fill="#D65757" stroke="#D65757" stroke-width="0.358787"/>
<circle cx="32.6312" cy="37.5614" r="2.86171" fill="url(#paint4_linear_2163_8723)"/>
<circle cx="28.6364" cy="33.3258" r="0.458644" fill="#9090A6" fill-opacity="0.6"/>
<circle cx="36.7296" cy="33.3258" r="0.458644" fill="#9090A6" fill-opacity="0.6"/>
<circle cx="28.4567" cy="41.8825" r="0.458644" fill="#9090A6" fill-opacity="0.6"/>
<circle cx="36.9088" cy="41.8825" r="0.458644" fill="#9090A6" fill-opacity="0.6"/>
<mask id="path-22-outside-1_2163_8723" maskUnits="userSpaceOnUse" x="26.6528" y="35.4741" width="14" height="17" fill="black">
<rect fill="white" x="26.6528" y="35.4741" width="14" height="17"/>
<path fill-rule="evenodd" clip-rule="evenodd" d="M31.4247 46.3949C31.4247 46.3662 31.4257 46.3377 31.4275 46.3095L31.4552 37.5136C31.4552 36.9395 31.9206 36.4741 32.4947 36.4741C33.0688 36.4741 33.5342 36.9395 33.5342 37.5136L33.5222 41.3152C33.592 40.8089 34.0264 40.4189 34.552 40.4189C35.1261 40.4189 35.5915 40.8843 35.5915 41.4585L35.591 41.976C35.5955 41.4058 36.0591 40.9449 36.6305 40.9449C37.2046 40.9449 37.67 41.4103 37.67 41.9844L37.6672 45.0851L37.668 45.0851L37.6701 42.7504C37.6701 42.1763 38.1355 41.7109 38.7096 41.7109C39.2837 41.7109 39.7491 42.1763 39.7491 42.7504L39.7459 46.2186C39.754 46.2777 39.7582 46.338 39.7582 46.3993V48.0825C39.7582 48.8258 39.1809 49.4327 38.4497 49.48V51.6586H32.4475V49.4279C32.2003 49.3592 31.9804 49.2239 31.8085 49.0423L28.2408 47.3126C27.7232 47.0604 27.5057 46.4384 27.758 45.9208C28.0103 45.4033 28.6322 45.1858 29.1498 45.438L31.4247 46.541V46.3949Z"/>
</mask>
<path fill-rule="evenodd" clip-rule="evenodd" d="M31.4247 46.3949C31.4247 46.3662 31.4257 46.3377 31.4275 46.3095L31.4552 37.5136C31.4552 36.9395 31.9206 36.4741 32.4947 36.4741C33.0688 36.4741 33.5342 36.9395 33.5342 37.5136L33.5222 41.3152C33.592 40.8089 34.0264 40.4189 34.552 40.4189C35.1261 40.4189 35.5915 40.8843 35.5915 41.4585L35.591 41.976C35.5955 41.4058 36.0591 40.9449 36.6305 40.9449C37.2046 40.9449 37.67 41.4103 37.67 41.9844L37.6672 45.0851L37.668 45.0851L37.6701 42.7504C37.6701 42.1763 38.1355 41.7109 38.7096 41.7109C39.2837 41.7109 39.7491 42.1763 39.7491 42.7504L39.7459 46.2186C39.754 46.2777 39.7582 46.338 39.7582 46.3993V48.0825C39.7582 48.8258 39.1809 49.4327 38.4497 49.48V51.6586H32.4475V49.4279C32.2003 49.3592 31.9804 49.2239 31.8085 49.0423L28.2408 47.3126C27.7232 47.0604 27.5057 46.4384 27.758 45.9208C28.0103 45.4033 28.6322 45.1858 29.1498 45.438L31.4247 46.541V46.3949Z" fill="#D65757"/>
<path d="M31.4275 46.3095L31.9245 46.3413L31.9255 46.3262L31.9255 46.311L31.4275 46.3095ZM31.4552 37.5136L31.9533 37.5152V37.5136H31.4552ZM33.5342 37.5136L34.0323 37.5152V37.5136H33.5342ZM33.5222 41.3152L33.0242 41.3137L34.0156 41.3832L33.5222 41.3152ZM35.5915 41.4585L36.0895 41.4589V41.4585H35.5915ZM35.591 41.976L35.0929 41.9756L36.089 41.98L35.591 41.976ZM37.67 41.9844L38.168 41.9849V41.9844H37.67ZM37.6672 45.0851L37.1691 45.0847L37.1686 45.5826L37.6666 45.5832L37.6672 45.0851ZM37.668 45.0851L37.6674 45.5832L38.1656 45.5838L38.166 45.0856L37.668 45.0851ZM37.6701 42.7504L38.1681 42.7509V42.7504H37.6701ZM39.7491 42.7504L40.2472 42.7509V42.7504H39.7491ZM39.7459 46.2186L39.2479 46.2182L39.2478 46.2524L39.2525 46.2863L39.7459 46.2186ZM38.4497 49.48L38.4176 48.983L37.9517 49.0131V49.48H38.4497ZM38.4497 51.6586V52.1567H38.9478V51.6586H38.4497ZM32.4475 51.6586H31.9495V52.1567H32.4475V51.6586ZM32.4475 49.4279H32.9456V49.0494L32.5809 48.9481L32.4475 49.4279ZM31.8085 49.0423L32.1701 48.6999L32.1076 48.6338L32.0258 48.5942L31.8085 49.0423ZM28.2408 47.3126L28.0226 47.7604L28.0235 47.7608L28.2408 47.3126ZM27.758 45.9208L28.2057 46.139H28.2057L27.758 45.9208ZM29.1498 45.438L28.9316 45.8858L28.9325 45.8862L29.1498 45.438ZM31.4247 46.541L31.2075 46.9891L31.9228 47.336V46.541H31.4247ZM30.9304 46.2777C30.9279 46.3165 30.9267 46.3556 30.9267 46.3949H31.9228C31.9228 46.3768 31.9234 46.3589 31.9245 46.3413L30.9304 46.2777ZM30.9571 37.5121L30.9294 46.3079L31.9255 46.311L31.9532 37.5152L30.9571 37.5121ZM32.4947 35.9761C31.6455 35.9761 30.9571 36.6644 30.9571 37.5136H31.9533C31.9533 37.2146 32.1956 36.9722 32.4947 36.9722V35.9761ZM34.0323 37.5136C34.0323 36.6644 33.3439 35.9761 32.4947 35.9761V36.9722C32.7938 36.9722 33.0361 37.2146 33.0361 37.5136H34.0323ZM34.0203 41.3168L34.0323 37.5152L33.0362 37.5121L33.0242 41.3137L34.0203 41.3168ZM34.552 39.9209C33.7742 39.9209 33.1321 40.4978 33.0288 41.2473L34.0156 41.3832C34.0519 41.12 34.2786 40.917 34.552 40.917V39.9209ZM36.0895 41.4585C36.0895 40.6093 35.4011 39.9209 34.552 39.9209V40.917C34.851 40.917 35.0934 41.1594 35.0934 41.4585H36.0895ZM36.089 41.9765L36.0895 41.4589L35.0934 41.458L35.0929 41.9756L36.089 41.9765ZM36.6305 40.4469C35.7854 40.4469 35.0996 41.1285 35.0929 41.9721L36.089 41.98C36.0914 41.683 36.3329 41.443 36.6305 41.443V40.4469ZM38.168 41.9844C38.168 41.1352 37.4797 40.4469 36.6305 40.4469V41.443C36.9295 41.443 37.1719 41.6854 37.1719 41.9844H38.168ZM38.1652 45.0856L38.168 41.9849L37.1719 41.984L37.1691 45.0847L38.1652 45.0856ZM37.6685 44.5871L37.6677 44.5871L37.6666 45.5832L37.6674 45.5832L37.6685 44.5871ZM37.172 42.75L37.1699 45.0847L38.166 45.0856L38.1681 42.7509L37.172 42.75ZM38.7096 41.2129C37.8604 41.2129 37.172 41.9012 37.172 42.7504H38.1681C38.1681 42.4514 38.4105 42.209 38.7096 42.209V41.2129ZM40.2472 42.7504C40.2472 41.9012 39.5588 41.2129 38.7096 41.2129V42.209C39.0086 42.209 39.251 42.4514 39.251 42.7504H40.2472ZM40.244 46.2191L40.2472 42.7509L39.251 42.75L39.2479 46.2182L40.244 46.2191ZM40.2563 46.3993C40.2563 46.3153 40.2505 46.2324 40.2394 46.151L39.2525 46.2863C39.2575 46.3229 39.2602 46.3606 39.2602 46.3993H40.2563ZM40.2563 48.0825V46.3993H39.2602V48.0825H40.2563ZM38.4819 49.977C39.4735 49.9129 40.2563 49.09 40.2563 48.0825H39.2602C39.2602 48.5615 38.8884 48.9526 38.4176 48.983L38.4819 49.977ZM38.9478 51.6586V49.48H37.9517V51.6586H38.9478ZM32.4475 52.1567H38.4497V51.1606H32.4475V52.1567ZM31.9495 49.4279V51.6586H32.9456V49.4279H31.9495ZM31.4469 49.3848C31.6794 49.6303 31.9776 49.8142 32.3141 49.9078L32.5809 48.9481C32.423 48.9042 32.2814 48.8174 32.1701 48.6999L31.4469 49.3848ZM28.0235 47.7608L31.5912 49.4905L32.0258 48.5942L28.4581 46.8645L28.0235 47.7608ZM27.3103 45.7026C26.9364 46.4698 27.2601 47.3887 28.0226 47.7604L28.459 46.8649C28.1863 46.732 28.0751 46.407 28.2057 46.139L27.3103 45.7026ZM29.368 44.9903C28.6008 44.6164 27.6819 44.9401 27.3103 45.7026L28.2057 46.139C28.3386 45.8664 28.6636 45.7551 28.9316 45.8858L29.368 44.9903ZM31.642 46.0928L29.3671 44.9899L28.9325 45.8862L31.2075 46.9891L31.642 46.0928ZM30.9267 46.3949V46.541H31.9228V46.3949H30.9267Z" fill="#E0D6CE" mask="url(#path-22-outside-1_2163_8723)"/>
<defs>
<linearGradient id="paint0_linear_2163_8723" x1="23.4136" y1="42.6488" x2="3.55243" y2="42.6488" gradientUnits="userSpaceOnUse">
<stop stop-color="#9D9D9D"/>
<stop offset="1" stop-color="#8F918E"/>
</linearGradient>
<linearGradient id="paint1_linear_2163_8723" x1="13.812" y1="33.4283" x2="1.82608" y2="33.4283" gradientUnits="userSpaceOnUse">
<stop stop-color="#424541"/>
<stop offset="1" stop-color="#767976"/>
</linearGradient>
<linearGradient id="paint2_linear_2163_8723" x1="13.1968" y1="29.8245" x2="1.96404" y2="29.8245" gradientUnits="userSpaceOnUse">
<stop stop-color="#838782"/>
<stop offset="1" stop-color="#C5C7C5"/>
</linearGradient>
<linearGradient id="paint3_linear_2163_8723" x1="32.6309" y1="32.3438" x2="32.6309" y2="42.7783" gradientUnits="userSpaceOnUse">
<stop stop-color="#7F7F80"/>
<stop offset="1" stop-color="#777777"/>
</linearGradient>
<linearGradient id="paint4_linear_2163_8723" x1="32.6312" y1="34.6997" x2="32.6312" y2="40.4231" gradientUnits="userSpaceOnUse">
<stop stop-color="#DB3D3D"/>
<stop offset="1" stop-color="#BF7F7F"/>
</linearGradient>
</defs>
</svg>
