<svg width="24" height="52" viewBox="0 0 24 52" fill="none" xmlns="http://www.w3.org/2000/svg">
<path d="M19.3312 49.9465C22.5841 47.6443 23.7546 43.5341 23.4181 41.144C23.0815 38.7539 21.9416 37.294 20.8638 36.2712C19.7859 35.2485 16.6971 33.8989 13.3581 34.385V33.6384H3.76952L3.61249 44.9165C5.0769 47.8603 6.65175 49.5274 9.5856 50.8503C12.5195 52.1732 16.3938 51.8744 19.3312 49.9465Z" fill="url(#paint0_linear_2227_7304)" stroke="#252424" stroke-width="0.201453"/>
<circle cx="6.87113" cy="6.87113" r="6.65528" transform="matrix(0 -1 -1 0 21.5977 47.8721)" fill="#858484" stroke="#252424" stroke-width="0.431685"/>
<path d="M1.88614 33.6416H13.8721V33.2151H1.88614V33.6416Z" fill="url(#paint1_linear_2227_7304)" stroke="#252424" stroke-width="0.143895"/>
<path d="M9.4543 26.4741L13.2568 33.1748H2.6004L2.0241 26.6182L9.4543 26.4741Z" fill="url(#paint2_linear_2227_7304)" stroke="#252424" stroke-width="0.201453"/>
<path d="M1.28298 49.0942H3.67053L3.77344 33.1751H1.46823L1.28298 49.0942Z" fill="#858484" stroke="#252424" stroke-width="0.201453"/>
<path d="M0.789937 49.7524H1.27097L1.45998 32.6242H0.974428L0.789937 49.7524Z" fill="#858484" stroke="#252424" stroke-width="0.201453"/>
<path d="M18.204 40.1834C18.2042 40.192 18.2041 40.2004 18.2039 40.2084C18.2013 40.3156 18.1643 40.3755 18.0845 40.3599C17.3368 40.1742 16.5642 40.1516 15.8815 40.45C15.7782 40.2247 15.6087 40.0357 15.3978 39.9085C15.8235 39.395 16.3781 38.8787 16.8117 38.5508C17.4242 38.0875 18.1924 39.6423 18.2039 40.1835L18.204 40.1834ZM18.1262 41.925C18.1359 42.6344 17.0664 43.8877 16.9444 43.5311C16.7312 42.7904 16.3643 42.1097 15.764 41.6677C15.9037 41.4725 15.9876 41.235 15.9919 40.9786C16.6495 41.0906 17.374 41.3127 17.8748 41.5243C18.0511 41.5987 18.1237 41.7442 18.1262 41.925ZM15.9338 37.7284C15.9334 37.7478 15.9252 37.7674 15.9082 37.7869C15.3738 38.3414 14.968 38.9989 14.8849 39.739C14.8464 39.7354 14.8076 39.7333 14.7682 39.7333C14.5528 39.7333 14.3502 39.7897 14.174 39.8881C13.9422 39.2626 13.7723 38.5241 13.7051 37.9845C13.5951 37.1008 15.9398 37.3928 15.9338 37.7284ZM15.8349 43.9953C15.8259 44.8487 13.3243 44.4774 13.628 44.1293C14.1628 43.5745 14.5687 42.9166 14.6516 42.1761C14.69 42.1798 14.7289 42.1818 14.7682 42.1818C14.9834 42.1818 15.1859 42.1256 15.3619 42.0273C15.5939 42.653 15.764 43.3919 15.8312 43.9317C15.8339 43.9536 15.8352 43.9748 15.8349 43.9953ZM15.1411 40.9576C15.1411 41.1654 14.9761 41.3304 14.7682 41.3304C14.5604 41.3304 14.3954 41.1654 14.3954 40.9576C14.3954 40.7497 14.5604 40.5847 14.7682 40.5847C14.9761 40.5847 15.1411 40.7497 15.1411 40.9576ZM14.1391 42.0069C13.7133 42.5207 13.1583 43.0374 12.7245 43.3655C11.9731 43.9338 10.9876 41.4652 11.4517 41.5564C12.1997 41.7421 12.9724 41.7646 13.6552 41.466C13.7587 41.6911 13.9283 41.8799 14.1391 42.0069ZM13.7718 40.2483C13.6323 40.4436 13.5486 40.6812 13.5445 40.9377C12.8869 40.8257 12.1623 40.6035 11.6614 40.392C10.7936 40.0254 12.4387 37.9376 12.5918 38.3852C12.8049 39.1258 13.1718 39.8062 13.7718 40.2483Z" fill="#252424"/>
<ellipse cx="0.831077" cy="0.831089" rx="0.831077" ry="0.831089" transform="matrix(0 -1 -1 0 15.5986 41.7886)" fill="#252424"/>
<circle cx="5.80637" cy="5.80637" r="5.75099" transform="matrix(0 -1 -1 0 20.6201 46.8047)" stroke="#252424" stroke-width="0.110765"/>
<circle cx="5.12685" cy="5.12685" r="5.07147" transform="matrix(0 -1 -1 0 19.9404 46.126)" stroke="#252424" stroke-width="0.110765"/>
<circle cx="4.38838" cy="4.38838" r="4.333" transform="matrix(0 -1 -1 0 19.2021 45.3872)" stroke="#252424" stroke-width="0.110765"/>
<circle cx="3.59091" cy="3.59091" r="3.53553" transform="matrix(0 -1 -1 0 18.4053 44.5898)" stroke="#252424" stroke-width="0.110765"/>
<line y1="-0.0553825" x2="13.7452" y2="-0.0553825" transform="matrix(0 1 1 0 14.8125 34.127)" stroke="#252424" stroke-width="0.110765"/>
<line y1="-0.0553825" x2="13.393" y2="-0.0553825" transform="matrix(1 -1.90182e-08 -1.90182e-08 -1 8.11719 40.999)" stroke="#252424" stroke-width="0.110765"/>
<defs>
<linearGradient id="paint0_linear_2227_7304" x1="23.4736" y1="42.6488" x2="3.61249" y2="42.6488" gradientUnits="userSpaceOnUse">
<stop stop-color="#252725"/>
<stop offset="1" stop-color="#333533"/>
</linearGradient>
<linearGradient id="paint1_linear_2227_7304" x1="13.8721" y1="33.4283" x2="1.88614" y2="33.4283" gradientUnits="userSpaceOnUse">
<stop stop-color="#252725"/>
<stop offset="1" stop-color="#2B2D2A"/>
</linearGradient>
<linearGradient id="paint2_linear_2227_7304" x1="13.2568" y1="29.8245" x2="2.0241" y2="29.8245" gradientUnits="userSpaceOnUse">
<stop stop-color="#252725"/>
<stop offset="1" stop-color="#3B3D3B"/>
</linearGradient>
</defs>
</svg>
