<svg width="40" height="53" viewBox="0 0 40 53" fill="none" xmlns="http://www.w3.org/2000/svg">
<path d="M19.0157 49.9465C22.2686 47.6443 23.4391 43.5341 23.1026 41.144C22.7661 38.7539 21.6262 37.294 20.5483 36.2712C19.4705 35.2485 16.3816 33.8989 13.0427 34.385V33.6384H3.45409L3.29706 44.9165C4.76147 47.8603 6.33632 49.5274 9.27017 50.8503C12.204 52.1732 16.0784 51.8744 19.0157 49.9465Z" fill="url(#paint0_linear_2227_7266)" stroke="#252424" stroke-width="0.201453"/>
<circle cx="6.87113" cy="6.87113" r="6.65528" transform="matrix(0 -1 -1 0 21.2822 47.8721)" fill="#858484" stroke="#252424" stroke-width="0.431685"/>
<path d="M1.57071 33.6416H13.5566V33.2151H1.57071V33.6416Z" fill="url(#paint1_linear_2227_7266)" stroke="#252424" stroke-width="0.143895"/>
<path d="M9.13887 26.4741L12.9414 33.1748H2.28497L1.70867 26.6182L9.13887 26.4741Z" fill="url(#paint2_linear_2227_7266)" stroke="#252424" stroke-width="0.201453"/>
<path d="M0.967552 49.0942H3.3551L3.45801 33.1751H1.1528L0.967552 49.0942Z" fill="#858484" stroke="#252424" stroke-width="0.201453"/>
<path d="M0.474508 49.7524H0.955539L1.14455 32.6242H0.658998L0.474508 49.7524Z" fill="#858484" stroke="#252424" stroke-width="0.201453"/>
<path d="M17.8886 40.1834C17.8887 40.192 17.8887 40.2004 17.8885 40.2084C17.8858 40.3156 17.8489 40.3755 17.7691 40.3599C17.0214 40.1742 16.2488 40.1516 15.5661 40.45C15.4628 40.2247 15.2933 40.0357 15.0824 39.9085C15.5081 39.395 16.0627 38.8787 16.4963 38.5508C17.1088 38.0875 17.8769 39.6423 17.8885 40.1835L17.8886 40.1834ZM17.8107 41.925C17.8204 42.6344 16.751 43.8877 16.629 43.5311C16.4158 42.7904 16.0489 42.1097 15.4486 41.6677C15.5883 41.4725 15.6721 41.235 15.6765 40.9786C16.3341 41.0906 17.0586 41.3127 17.5594 41.5243C17.7357 41.5987 17.8083 41.7442 17.8107 41.925ZM15.6184 37.7284C15.618 37.7478 15.6098 37.7674 15.5928 37.7869C15.0583 38.3414 14.6526 38.9989 14.5694 39.739C14.531 39.7354 14.4922 39.7333 14.4528 39.7333C14.2374 39.7333 14.0348 39.7897 13.8586 39.8881C13.6267 39.2626 13.4569 38.5241 13.3897 37.9845C13.2796 37.1008 15.6243 37.3928 15.6184 37.7284ZM15.5195 43.9953C15.5105 44.8487 13.0089 44.4774 13.3126 44.1293C13.8474 43.5745 14.2533 42.9166 14.3361 42.1761C14.3746 42.1798 14.4134 42.1818 14.4528 42.1818C14.668 42.1818 14.8704 42.1256 15.0465 42.0273C15.2785 42.653 15.4485 43.3919 15.5157 43.9317C15.5185 43.9536 15.5197 43.9748 15.5195 43.9953ZM14.8256 40.9576C14.8256 41.1654 14.6606 41.3304 14.4528 41.3304C14.245 41.3304 14.0799 41.1654 14.0799 40.9576C14.0799 40.7497 14.245 40.5847 14.4528 40.5847C14.6606 40.5847 14.8256 40.7497 14.8256 40.9576ZM13.8237 42.0069C13.3979 42.5207 12.8429 43.0374 12.4091 43.3655C11.6577 43.9338 10.6721 41.4652 11.1363 41.5564C11.8842 41.7421 12.657 41.7646 13.3398 41.466C13.4433 41.6911 13.6128 41.8799 13.8237 42.0069ZM13.4564 40.2483C13.3168 40.4436 13.2332 40.6812 13.2291 40.9377C12.5714 40.8257 11.8469 40.6035 11.346 40.392C10.4782 40.0254 12.1233 37.9376 12.2764 38.3852C12.4895 39.1258 12.8564 39.8062 13.4564 40.2483Z" fill="#252424"/>
<ellipse cx="0.831077" cy="0.831089" rx="0.831077" ry="0.831089" transform="matrix(0 -1 -1 0 15.2832 41.7886)" fill="#252424"/>
<circle cx="5.80637" cy="5.80637" r="5.75099" transform="matrix(0 -1 -1 0 20.3047 46.8047)" stroke="#252424" stroke-width="0.110765"/>
<circle cx="5.12685" cy="5.12685" r="5.07147" transform="matrix(0 -1 -1 0 19.625 46.126)" stroke="#252424" stroke-width="0.110765"/>
<circle cx="4.38838" cy="4.38838" r="4.333" transform="matrix(0 -1 -1 0 18.8867 45.3872)" stroke="#252424" stroke-width="0.110765"/>
<circle cx="3.59091" cy="3.59091" r="3.53553" transform="matrix(0 -1 -1 0 18.0898 44.5898)" stroke="#252424" stroke-width="0.110765"/>
<line y1="-0.0553825" x2="13.7452" y2="-0.0553825" transform="matrix(0 1 1 0 14.4971 34.127)" stroke="#252424" stroke-width="0.110765"/>
<line y1="-0.0553825" x2="13.393" y2="-0.0553825" transform="matrix(1 -1.90182e-08 -1.90182e-08 -1 7.80176 40.999)" stroke="#252424" stroke-width="0.110765"/>
<rect x="27.1582" y="32.3438" width="10.4346" height="10.4346" rx="0.717573" fill="url(#paint3_linear_2227_7266)"/>
<circle cx="32.3756" cy="37.5607" r="3.2734" fill="#F8C83D" stroke="#EABE40" stroke-width="0.358787"/>
<circle cx="32.3759" cy="37.5614" r="2.86171" fill="url(#paint4_linear_2227_7266)"/>
<circle cx="28.3815" cy="33.3258" r="0.458644" fill="#6E6E6F" fill-opacity="0.6"/>
<circle cx="36.4748" cy="33.3258" r="0.458644" fill="#6E6E6F" fill-opacity="0.6"/>
<circle cx="28.2013" cy="41.8825" r="0.458644" fill="#6E6E6F" fill-opacity="0.6"/>
<circle cx="36.653" cy="41.8825" r="0.458644" fill="#6E6E6F" fill-opacity="0.6"/>
<mask id="path-22-outside-1_2227_7266" maskUnits="userSpaceOnUse" x="26.3975" y="35.4741" width="14" height="17" fill="black">
<rect fill="white" x="26.3975" y="35.4741" width="14" height="17"/>
<path fill-rule="evenodd" clip-rule="evenodd" d="M31.1694 46.395C31.1694 46.3663 31.1703 46.3379 31.1721 46.3096L31.1998 37.5136C31.1998 36.9395 31.6652 36.4741 32.2393 36.4741C32.8135 36.4741 33.2788 36.9395 33.2788 37.5136L33.2669 41.315C33.3366 40.8087 33.7711 40.4187 34.2966 40.4187C34.8707 40.4187 35.3361 40.8841 35.3361 41.4582L35.3356 41.9735C35.3417 41.4045 35.8047 40.9452 36.3751 40.9452C36.9492 40.9452 37.4146 41.4106 37.4146 41.9847L37.4118 45.0853L37.4127 45.0853L37.4149 42.7504C37.4149 42.1763 37.8803 41.7109 38.4544 41.7109C39.0285 41.7109 39.4939 42.1763 39.4939 42.7504L39.4907 46.2199C39.4987 46.2786 39.5028 46.3385 39.5028 46.3994V48.0826C39.5028 48.826 38.9254 49.433 38.1941 49.4802V51.659H32.1919V49.428C31.9446 49.3592 31.7247 49.2238 31.5528 49.0421L27.9854 47.3126C27.4678 47.0603 27.2504 46.4383 27.5026 45.9208C27.7549 45.4032 28.3768 45.1857 28.8944 45.438L31.1694 46.5409V46.395Z"/>
</mask>
<path fill-rule="evenodd" clip-rule="evenodd" d="M31.1694 46.395C31.1694 46.3663 31.1703 46.3379 31.1721 46.3096L31.1998 37.5136C31.1998 36.9395 31.6652 36.4741 32.2393 36.4741C32.8135 36.4741 33.2788 36.9395 33.2788 37.5136L33.2669 41.315C33.3366 40.8087 33.7711 40.4187 34.2966 40.4187C34.8707 40.4187 35.3361 40.8841 35.3361 41.4582L35.3356 41.9735C35.3417 41.4045 35.8047 40.9452 36.3751 40.9452C36.9492 40.9452 37.4146 41.4106 37.4146 41.9847L37.4118 45.0853L37.4127 45.0853L37.4149 42.7504C37.4149 42.1763 37.8803 41.7109 38.4544 41.7109C39.0285 41.7109 39.4939 42.1763 39.4939 42.7504L39.4907 46.2199C39.4987 46.2786 39.5028 46.3385 39.5028 46.3994V48.0826C39.5028 48.826 38.9254 49.433 38.1941 49.4802V51.659H32.1919V49.428C31.9446 49.3592 31.7247 49.2238 31.5528 49.0421L27.9854 47.3126C27.4678 47.0603 27.2504 46.4383 27.5026 45.9208C27.7549 45.4032 28.3768 45.1857 28.8944 45.438L31.1694 46.5409V46.395Z" fill="#F8C83D"/>
<path d="M31.1721 46.3096L31.6691 46.3414L31.6701 46.3263L31.6702 46.3112L31.1721 46.3096ZM31.1998 37.5136L31.6979 37.5152V37.5136H31.1998ZM33.2788 37.5136L33.7769 37.5152V37.5136H33.2788ZM33.2669 41.315L32.7688 41.3134L33.7603 41.383L33.2669 41.315ZM35.3361 41.4582L35.8342 41.4587V41.4582H35.3361ZM35.3356 41.9735L34.8376 41.973L35.8337 41.9788L35.3356 41.9735ZM37.4146 41.9847L37.9126 41.9852V41.9847H37.4146ZM37.4118 45.0853L36.9137 45.0848L36.9133 45.5829L37.4113 45.5833L37.4118 45.0853ZM37.4127 45.0853L37.4123 45.5833L37.9104 45.5838L37.9108 45.0857L37.4127 45.0853ZM37.4149 42.7504L37.9129 42.7508V42.7504H37.4149ZM39.4939 42.7504L39.9919 42.7508V42.7504H39.4939ZM39.4907 46.2199L38.9927 46.2195L38.9926 46.2534L38.9972 46.2871L39.4907 46.2199ZM38.1941 49.4802L38.162 48.9832L37.696 49.0132V49.4802H38.1941ZM38.1941 51.659V52.1571H38.6921V51.659H38.1941ZM32.1919 51.659H31.6938V52.1571H32.1919V51.659ZM32.1919 49.428H32.6899V49.0496L32.3254 48.9482L32.1919 49.428ZM31.5528 49.0421L31.9145 48.6998L31.852 48.6337L31.7701 48.5939L31.5528 49.0421ZM27.9854 47.3126L27.7672 47.7603L27.7681 47.7607L27.9854 47.3126ZM27.5026 45.9208L27.0549 45.7026L27.0549 45.7026L27.5026 45.9208ZM28.8944 45.438L28.6762 45.8857L28.6771 45.8861L28.8944 45.438ZM31.1694 46.5409L30.9521 46.9891L31.6674 47.3359V46.5409H31.1694ZM30.6751 46.2778C30.6726 46.3166 30.6713 46.3557 30.6713 46.395H31.6674C31.6674 46.377 31.668 46.3591 31.6691 46.3414L30.6751 46.2778ZM30.7018 37.5121L30.674 46.308L31.6702 46.3112L31.6979 37.5152L30.7018 37.5121ZM32.2393 35.9761C31.3901 35.9761 30.7018 36.6644 30.7018 37.5136H31.6979C31.6979 37.2146 31.9403 36.9722 32.2393 36.9722V35.9761ZM33.7769 37.5136C33.7769 36.6644 33.0885 35.9761 32.2393 35.9761V36.9722C32.5384 36.9722 32.7808 37.2146 32.7808 37.5136H33.7769ZM33.7649 41.3166L33.7769 37.5152L32.7808 37.5121L32.7688 41.3134L33.7649 41.3166ZM34.2966 39.9206C33.5189 39.9206 32.8767 40.4976 32.7735 41.247L33.7603 41.383C33.7965 41.1197 34.0233 40.9168 34.2966 40.9168V39.9206ZM35.8342 41.4582C35.8342 40.609 35.1458 39.9206 34.2966 39.9206V40.9168C34.5956 40.9168 34.838 41.1592 34.838 41.4582H35.8342ZM35.8337 41.9739L35.8342 41.4587L34.838 41.4578L34.8376 41.973L35.8337 41.9739ZM36.3751 40.4472C35.5314 40.4472 34.8465 41.1266 34.8376 41.9682L35.8337 41.9788C35.8368 41.6825 36.078 41.4433 36.3751 41.4433V40.4472ZM37.9126 41.9847C37.9126 41.1355 37.2243 40.4472 36.3751 40.4472V41.4433C36.6741 41.4433 36.9165 41.6857 36.9165 41.9847H37.9126ZM37.9098 45.0857L37.9126 41.9852L36.9165 41.9843L36.9137 45.0848L37.9098 45.0857ZM37.4132 44.5872L37.4123 44.5872L37.4113 45.5833L37.4123 45.5833L37.4132 44.5872ZM36.9168 42.7499L36.9147 45.0848L37.9108 45.0857L37.9129 42.7508L36.9168 42.7499ZM38.4544 41.2128C37.6052 41.2128 36.9168 41.9012 36.9168 42.7504H37.9129C37.9129 42.4513 38.1553 42.2089 38.4544 42.2089V41.2128ZM39.9919 42.7504C39.9919 41.9012 39.3036 41.2128 38.4544 41.2128V42.2089C38.7534 42.2089 38.9958 42.4513 38.9958 42.7504H39.9919ZM39.9888 46.2204L39.9919 42.7508L38.9958 42.7499L38.9927 46.2195L39.9888 46.2204ZM40.0009 46.3994C40.0009 46.316 39.9952 46.2336 39.9842 46.1527L38.9972 46.2871C39.0022 46.3236 39.0048 46.361 39.0048 46.3994H40.0009ZM40.0009 48.0826V46.3994H39.0048V48.0826H40.0009ZM38.2261 49.9772C39.2179 49.9133 40.0009 49.0902 40.0009 48.0826H39.0048C39.0048 48.5617 38.6329 48.9528 38.162 48.9832L38.2261 49.9772ZM38.6921 51.659V49.4802H37.696V51.659H38.6921ZM32.1919 52.1571H38.1941V51.1609H32.1919V52.1571ZM31.6938 49.428V51.659H32.6899V49.428H31.6938ZM31.191 49.3845C31.4235 49.6301 31.7217 49.8142 32.0584 49.9078L32.3254 48.9482C32.1674 48.9042 32.0258 48.8174 31.9145 48.6998L31.191 49.3845ZM27.7681 47.7607L31.3355 49.4903L31.7701 48.5939L28.2027 46.8644L27.7681 47.7607ZM27.0549 45.7026C26.681 46.4697 27.0047 47.3886 27.7672 47.7603L28.2036 46.8649C27.931 46.732 27.8197 46.407 27.9503 46.139L27.0549 45.7026ZM29.1126 44.9903C28.3455 44.6163 27.4265 44.94 27.0549 45.7026L27.9503 46.139C28.0832 45.8663 28.4082 45.7551 28.6762 45.8857L29.1126 44.9903ZM31.3867 46.0928L29.1117 44.9898L28.6771 45.8861L30.9521 46.9891L31.3867 46.0928ZM30.6713 46.395V46.5409H31.6674V46.395H30.6713Z" fill="#988679" mask="url(#path-22-outside-1_2227_7266)"/>
<defs>
<linearGradient id="paint0_linear_2227_7266" x1="23.1582" y1="42.6488" x2="3.29706" y2="42.6488" gradientUnits="userSpaceOnUse">
<stop stop-color="#252725"/>
<stop offset="1" stop-color="#333533"/>
</linearGradient>
<linearGradient id="paint1_linear_2227_7266" x1="13.5566" y1="33.4283" x2="1.57071" y2="33.4283" gradientUnits="userSpaceOnUse">
<stop stop-color="#252725"/>
<stop offset="1" stop-color="#2B2D2A"/>
</linearGradient>
<linearGradient id="paint2_linear_2227_7266" x1="12.9414" y1="29.8245" x2="1.70867" y2="29.8245" gradientUnits="userSpaceOnUse">
<stop stop-color="#252725"/>
<stop offset="1" stop-color="#3B3D3B"/>
</linearGradient>
<linearGradient id="paint3_linear_2227_7266" x1="32.3755" y1="32.3438" x2="32.3755" y2="42.7783" gradientUnits="userSpaceOnUse">
<stop stop-color="#7F7F80"/>
<stop offset="1" stop-color="#777777"/>
</linearGradient>
<linearGradient id="paint4_linear_2227_7266" x1="32.3759" y1="34.6997" x2="32.3759" y2="40.4231" gradientUnits="userSpaceOnUse">
<stop stop-color="#F4CE60"/>
<stop offset="1" stop-color="#E4B93B"/>
</linearGradient>
</defs>
</svg>
