<svg width="40" height="53" viewBox="0 0 40 53" fill="none" xmlns="http://www.w3.org/2000/svg">
<path d="M18.6359 49.9465C21.8888 47.6443 23.0592 43.5341 22.7227 41.144C22.3862 38.7539 21.2463 37.294 20.1684 36.2712C19.0906 35.2485 16.0017 33.8989 12.6628 34.385V33.6384H3.07421L2.91718 44.9165C4.38159 47.8603 5.95643 49.5274 8.89029 50.8503C11.8241 52.1732 15.6985 51.8744 18.6359 49.9465Z" fill="url(#paint0_linear_2227_7324)" stroke="#252424" stroke-width="0.201453"/>
<circle cx="6.87113" cy="6.87113" r="6.65528" transform="matrix(0 -1 -1 0 20.9023 47.8721)" fill="#858484" stroke="#252424" stroke-width="0.431685"/>
<path d="M1.19082 33.6416H13.1768V33.2151H1.19082V33.6416Z" fill="#34901C" stroke="#252424" stroke-width="0.143895"/>
<path d="M8.75899 26.4741L12.5615 33.1748H1.90509L1.32878 26.6182L8.75899 26.4741Z" fill="url(#paint1_linear_2227_7324)" stroke="#252424" stroke-width="0.201453"/>
<path d="M0.587669 49.0942H2.97522L3.07812 33.1751H0.772918L0.587669 49.0942Z" fill="#858484" stroke="#252424" stroke-width="0.201453"/>
<path d="M0.0946248 49.7524H0.575656L0.764672 32.6242H0.279115L0.0946248 49.7524Z" fill="#858484" stroke="#252424" stroke-width="0.201453"/>
<path d="M17.5087 40.1834C17.5089 40.192 17.5088 40.2004 17.5086 40.2084C17.506 40.3156 17.469 40.3755 17.3892 40.3599C16.6415 40.1742 15.8689 40.1516 15.1862 40.45C15.0829 40.2247 14.9134 40.0357 14.7025 39.9085C15.1282 39.395 15.6828 38.8787 16.1164 38.5508C16.7289 38.0875 17.497 39.6423 17.5086 40.1835L17.5087 40.1834ZM17.4308 41.925C17.4406 42.6344 16.3711 43.8877 16.2491 43.5311C16.0359 42.7904 15.669 42.1097 15.0687 41.6677C15.2084 41.4725 15.2923 41.235 15.2966 40.9786C15.9542 41.0906 16.6787 41.3127 17.1795 41.5243C17.3558 41.5987 17.4284 41.7442 17.4308 41.925ZM15.2385 37.7284C15.2381 37.7478 15.2299 37.7674 15.2129 37.7869C14.6784 38.3414 14.2727 38.9989 14.1896 39.739C14.1511 39.7354 14.1123 39.7333 14.0729 39.7333C13.8575 39.7333 13.6549 39.7897 13.4787 39.8881C13.2469 39.2626 13.077 38.5241 13.0098 37.9845C12.8997 37.1008 15.2445 37.3928 15.2385 37.7284ZM15.1396 43.9953C15.1306 44.8487 12.629 44.4774 12.9327 44.1293C13.4675 43.5745 13.8734 42.9166 13.9562 42.1761C13.9947 42.1798 14.0336 42.1818 14.0729 42.1818C14.2881 42.1818 14.4905 42.1256 14.6666 42.0273C14.8986 42.653 15.0686 43.3919 15.1359 43.9317C15.1386 43.9536 15.1399 43.9748 15.1396 43.9953ZM14.4458 40.9576C14.4458 41.1654 14.2807 41.3304 14.0729 41.3304C13.8651 41.3304 13.7001 41.1654 13.7001 40.9576C13.7001 40.7497 13.8651 40.5847 14.0729 40.5847C14.2807 40.5847 14.4458 40.7497 14.4458 40.9576ZM13.4438 42.0069C13.018 42.5207 12.463 43.0374 12.0292 43.3655C11.2778 43.9338 10.2922 41.4652 10.7564 41.5564C11.5043 41.7421 12.2771 41.7646 12.9599 41.466C13.0634 41.6911 13.233 41.8799 13.4438 42.0069ZM13.0765 40.2483C12.937 40.4436 12.8533 40.6812 12.8492 40.9377C12.1915 40.8257 11.467 40.6035 10.9661 40.392C10.0983 40.0254 11.7434 37.9376 11.8965 38.3852C12.1096 39.1258 12.4765 39.8062 13.0765 40.2483Z" fill="#252424"/>
<ellipse cx="0.831077" cy="0.831089" rx="0.831077" ry="0.831089" transform="matrix(0 -1 -1 0 14.9033 41.7886)" fill="#252424"/>
<circle cx="5.80637" cy="5.80637" r="5.75099" transform="matrix(0 -1 -1 0 19.9248 46.8047)" stroke="#252424" stroke-width="0.110765"/>
<circle cx="5.12685" cy="5.12685" r="5.07147" transform="matrix(0 -1 -1 0 19.2451 46.126)" stroke="#252424" stroke-width="0.110765"/>
<circle cx="4.38838" cy="4.38838" r="4.333" transform="matrix(0 -1 -1 0 18.5068 45.3872)" stroke="#252424" stroke-width="0.110765"/>
<circle cx="3.59091" cy="3.59091" r="3.53553" transform="matrix(0 -1 -1 0 17.71 44.5898)" stroke="#252424" stroke-width="0.110765"/>
<line y1="-0.0553825" x2="13.7452" y2="-0.0553825" transform="matrix(0 1 1 0 14.1172 34.127)" stroke="#252424" stroke-width="0.110765"/>
<line y1="-0.0553825" x2="13.393" y2="-0.0553825" transform="matrix(1 -1.90182e-08 -1.90182e-08 -1 7.42188 40.999)" stroke="#252424" stroke-width="0.110765"/>
<rect x="26.7783" y="32.3438" width="10.4346" height="10.4346" rx="0.717573" fill="url(#paint2_linear_2227_7324)"/>
<circle cx="31.9958" cy="37.5607" r="3.2734" fill="#D65757" stroke="#D65757" stroke-width="0.358787"/>
<circle cx="31.996" cy="37.5614" r="2.86171" fill="url(#paint3_linear_2227_7324)"/>
<circle cx="28.0011" cy="33.3258" r="0.458644" fill="#9090A6" fill-opacity="0.6"/>
<circle cx="36.0944" cy="33.3258" r="0.458644" fill="#9090A6" fill-opacity="0.6"/>
<circle cx="27.8214" cy="41.8825" r="0.458644" fill="#9090A6" fill-opacity="0.6"/>
<circle cx="36.2736" cy="41.8825" r="0.458644" fill="#9090A6" fill-opacity="0.6"/>
<mask id="path-22-outside-1_2227_7324" maskUnits="userSpaceOnUse" x="26.0176" y="35.4741" width="14" height="17" fill="black">
<rect fill="white" x="26.0176" y="35.4741" width="14" height="17"/>
<path fill-rule="evenodd" clip-rule="evenodd" d="M30.7895 46.3949C30.7895 46.3662 30.7904 46.3377 30.7922 46.3095L30.8199 37.5136C30.8199 36.9395 31.2853 36.4741 31.8594 36.4741C32.4336 36.4741 32.899 36.9395 32.899 37.5136L32.887 41.3152C32.9567 40.8089 33.3912 40.4189 33.9167 40.4189C34.4908 40.4189 34.9562 40.8843 34.9562 41.4585L34.9557 41.976C34.9602 41.4058 35.4239 40.9449 35.9952 40.9449C36.5693 40.9449 37.0347 41.4103 37.0347 41.9844L37.0319 45.0851L37.0327 45.0851L37.0348 42.7504C37.0348 42.1763 37.5002 41.7109 38.0743 41.7109C38.6485 41.7109 39.1138 42.1763 39.1138 42.7504L39.1107 46.2186C39.1188 46.2777 39.123 46.338 39.123 46.3993V48.0825C39.123 48.8258 38.5457 49.4327 37.8145 49.48V51.6586H31.8123V49.4279C31.565 49.3592 31.3452 49.2239 31.1732 49.0423L27.6055 47.3126C27.0879 47.0604 26.8705 46.4384 27.1227 45.9208C27.375 45.4033 27.997 45.1858 28.5145 45.438L30.7895 46.541V46.3949Z"/>
</mask>
<path fill-rule="evenodd" clip-rule="evenodd" d="M30.7895 46.3949C30.7895 46.3662 30.7904 46.3377 30.7922 46.3095L30.8199 37.5136C30.8199 36.9395 31.2853 36.4741 31.8594 36.4741C32.4336 36.4741 32.899 36.9395 32.899 37.5136L32.887 41.3152C32.9567 40.8089 33.3912 40.4189 33.9167 40.4189C34.4908 40.4189 34.9562 40.8843 34.9562 41.4585L34.9557 41.976C34.9602 41.4058 35.4239 40.9449 35.9952 40.9449C36.5693 40.9449 37.0347 41.4103 37.0347 41.9844L37.0319 45.0851L37.0327 45.0851L37.0348 42.7504C37.0348 42.1763 37.5002 41.7109 38.0743 41.7109C38.6485 41.7109 39.1138 42.1763 39.1138 42.7504L39.1107 46.2186C39.1188 46.2777 39.123 46.338 39.123 46.3993V48.0825C39.123 48.8258 38.5457 49.4327 37.8145 49.48V51.6586H31.8123V49.4279C31.565 49.3592 31.3452 49.2239 31.1732 49.0423L27.6055 47.3126C27.0879 47.0604 26.8705 46.4384 27.1227 45.9208C27.375 45.4033 27.997 45.1858 28.5145 45.438L30.7895 46.541V46.3949Z" fill="#D65757"/>
<path d="M30.7922 46.3095L31.2893 46.3413L31.2902 46.3262L31.2903 46.311L30.7922 46.3095ZM30.8199 37.5136L31.318 37.5152V37.5136H30.8199ZM32.899 37.5136L33.397 37.5152V37.5136H32.899ZM32.887 41.3152L32.3889 41.3137L33.3804 41.3832L32.887 41.3152ZM34.9562 41.4585L35.4543 41.4589V41.4585H34.9562ZM34.9557 41.976L34.4577 41.9756L35.4538 41.98L34.9557 41.976ZM37.0347 41.9844L37.5328 41.9849V41.9844H37.0347ZM37.0319 45.0851L36.5338 45.0847L36.5334 45.5826L37.0313 45.5832L37.0319 45.0851ZM37.0327 45.0851L37.0321 45.5832L37.5303 45.5838L37.5308 45.0856L37.0327 45.0851ZM37.0348 42.7504L37.5329 42.7509V42.7504H37.0348ZM39.1138 42.7504L39.6119 42.7509V42.7504H39.1138ZM39.1107 46.2186L38.6126 46.2182L38.6126 46.2524L38.6172 46.2863L39.1107 46.2186ZM37.8145 49.48L37.7823 48.983L37.3164 49.0131V49.48H37.8145ZM37.8145 51.6586V52.1567H38.3125V51.6586H37.8145ZM31.8123 51.6586H31.3142V52.1567H31.8123V51.6586ZM31.8123 49.4279H32.3103V49.0494L31.9457 48.9481L31.8123 49.4279ZM31.1732 49.0423L31.5349 48.6999L31.4723 48.6338L31.3905 48.5942L31.1732 49.0423ZM27.6055 47.3126L27.3873 47.7604L27.3882 47.7608L27.6055 47.3126ZM27.1227 45.9208L27.5704 46.139L27.5704 46.139L27.1227 45.9208ZM28.5145 45.438L28.2963 45.8858L28.2973 45.8862L28.5145 45.438ZM30.7895 46.541L30.5722 46.9891L31.2876 47.336V46.541H30.7895ZM30.2952 46.2777C30.2927 46.3165 30.2914 46.3556 30.2914 46.3949H31.2876C31.2876 46.3768 31.2881 46.3589 31.2893 46.3413L30.2952 46.2777ZM30.3219 37.5121L30.2942 46.3079L31.2903 46.311L31.318 37.5152L30.3219 37.5121ZM31.8594 35.9761C31.0103 35.9761 30.3219 36.6644 30.3219 37.5136H31.318C31.318 37.2146 31.5604 36.9722 31.8594 36.9722V35.9761ZM33.397 37.5136C33.397 36.6644 32.7086 35.9761 31.8594 35.9761V36.9722C32.1585 36.9722 32.4009 37.2146 32.4009 37.5136H33.397ZM33.385 41.3168L33.397 37.5152L32.4009 37.5121L32.3889 41.3137L33.385 41.3168ZM33.9167 39.9209C33.139 39.9209 32.4968 40.4978 32.3936 41.2473L33.3804 41.3832C33.4166 41.12 33.6434 40.917 33.9167 40.917V39.9209ZM35.4543 41.4585C35.4543 40.6093 34.7659 39.9209 33.9167 39.9209V40.917C34.2158 40.917 34.4581 41.1594 34.4581 41.4585H35.4543ZM35.4538 41.9765L35.4543 41.4589L34.4581 41.458L34.4577 41.9756L35.4538 41.9765ZM35.9952 40.4469C35.1501 40.4469 34.4644 41.1285 34.4577 41.9721L35.4538 41.98C35.4561 41.683 35.6976 41.443 35.9952 41.443V40.4469ZM37.5328 41.9844C37.5328 41.1352 36.8444 40.4469 35.9952 40.4469V41.443C36.2943 41.443 36.5367 41.6854 36.5367 41.9844H37.5328ZM37.53 45.0856L37.5328 41.9849L36.5367 41.984L36.5338 45.0847L37.53 45.0856ZM37.0333 44.5871L37.0325 44.5871L37.0313 45.5832L37.0321 45.5832L37.0333 44.5871ZM36.5368 42.75L36.5346 45.0847L37.5308 45.0856L37.5329 42.7509L36.5368 42.75ZM38.0743 41.2129C37.2251 41.2129 36.5368 41.9012 36.5368 42.7504H37.5329C37.5329 42.4514 37.7753 42.209 38.0743 42.209V41.2129ZM39.6119 42.7504C39.6119 41.9012 38.9235 41.2129 38.0743 41.2129V42.209C38.3734 42.209 38.6158 42.4514 38.6158 42.7504H39.6119ZM39.6087 46.2191L39.6119 42.7509L38.6158 42.75L38.6126 46.2182L39.6087 46.2191ZM39.621 46.3993C39.621 46.3153 39.6153 46.2324 39.6041 46.151L38.6172 46.2863C38.6223 46.3229 38.6249 46.3606 38.6249 46.3993H39.621ZM39.621 48.0825V46.3993H38.6249V48.0825H39.621ZM37.8466 49.977C38.8382 49.9129 39.621 49.09 39.621 48.0825H38.6249C38.6249 48.5615 38.2531 48.9526 37.7823 48.983L37.8466 49.977ZM38.3125 51.6586V49.48H37.3164V51.6586H38.3125ZM31.8123 52.1567H37.8145V51.1606H31.8123V52.1567ZM31.3142 49.4279V51.6586H32.3103V49.4279H31.3142ZM30.8116 49.3848C31.0441 49.6303 31.3423 49.8142 31.6789 49.9078L31.9457 48.9481C31.7877 48.9042 31.6462 48.8174 31.5349 48.6999L30.8116 49.3848ZM27.3882 47.7608L30.956 49.4905L31.3905 48.5942L27.8228 46.8645L27.3882 47.7608ZM26.675 45.7026C26.3011 46.4698 26.6248 47.3887 27.3873 47.7604L27.8237 46.8649C27.5511 46.732 27.4398 46.407 27.5704 46.139L26.675 45.7026ZM28.7328 44.9903C27.9656 44.6164 27.0467 44.9401 26.675 45.7026L27.5704 46.139C27.7033 45.8664 28.0284 45.7551 28.2963 45.8858L28.7328 44.9903ZM31.0068 46.0928L28.7318 44.9899L28.2973 45.8862L30.5722 46.9891L31.0068 46.0928ZM30.2914 46.3949V46.541H31.2876V46.3949H30.2914Z" fill="#E0D6CE" mask="url(#path-22-outside-1_2227_7324)"/>
<defs>
<linearGradient id="paint0_linear_2227_7324" x1="22.7783" y1="42.6488" x2="2.91718" y2="42.6488" gradientUnits="userSpaceOnUse">
<stop stop-color="#34901C"/>
<stop offset="1" stop-color="#3FB021"/>
</linearGradient>
<linearGradient id="paint1_linear_2227_7324" x1="12.5615" y1="29.8245" x2="1.32878" y2="29.8245" gradientUnits="userSpaceOnUse">
<stop stop-color="#34901C"/>
<stop offset="1" stop-color="#41AB25"/>
</linearGradient>
<linearGradient id="paint2_linear_2227_7324" x1="31.9956" y1="32.3438" x2="31.9956" y2="42.7783" gradientUnits="userSpaceOnUse">
<stop stop-color="#7F7F80"/>
<stop offset="1" stop-color="#777777"/>
</linearGradient>
<linearGradient id="paint3_linear_2227_7324" x1="31.996" y1="34.6997" x2="31.996" y2="40.4231" gradientUnits="userSpaceOnUse">
<stop stop-color="#DB3D3D"/>
<stop offset="1" stop-color="#BF7F7F"/>
</linearGradient>
</defs>
</svg>
