<svg width="40" height="53" viewBox="0 0 40 53" fill="none" xmlns="http://www.w3.org/2000/svg">
<path d="M18.7301 49.9465C21.983 47.6443 23.1535 43.5341 22.817 41.144C22.4805 38.7539 21.3405 37.294 20.2627 36.2712C19.1848 35.2485 16.096 33.8989 12.757 34.385V33.6384H3.16845L3.01142 44.9165C4.47583 47.8603 6.05067 49.5274 8.98452 50.8503C11.9184 52.1732 15.7928 51.8744 18.7301 49.9465Z" fill="url(#paint0_linear_2163_8144)" stroke="#252424" stroke-width="0.201453"/>
<circle cx="6.87113" cy="6.87113" r="6.65528" transform="matrix(0 -1 -1 0 20.9966 47.8721)" fill="#858484" stroke="#252424" stroke-width="0.431685"/>
<path d="M1.28506 33.6416H13.271V33.2151H1.28506V33.6416Z" fill="#34901C" stroke="#252424" stroke-width="0.143895"/>
<path d="M8.85322 26.4741L12.6558 33.1748H1.99932L1.42302 26.6182L8.85322 26.4741Z" fill="url(#paint1_linear_2163_8144)" stroke="#252424" stroke-width="0.201453"/>
<path d="M0.681907 49.0942H3.06945L3.17236 33.1751H0.867157L0.681907 49.0942Z" fill="#858484" stroke="#252424" stroke-width="0.201453"/>
<path d="M0.188863 49.7524H0.669894L0.85891 32.6242H0.373354L0.188863 49.7524Z" fill="#858484" stroke="#252424" stroke-width="0.201453"/>
<path d="M17.6029 40.1834C17.6031 40.192 17.6031 40.2004 17.6029 40.2084C17.6002 40.3156 17.5632 40.3755 17.4835 40.3599C16.7357 40.1742 15.9632 40.1516 15.2805 40.45C15.1772 40.2247 15.0076 40.0357 14.7967 39.9085C15.2224 39.395 15.777 38.8787 16.2106 38.5508C16.8231 38.0875 17.5913 39.6423 17.6029 40.1835L17.6029 40.1834ZM17.5251 41.925C17.5348 42.6344 16.4654 43.8877 16.3433 43.5311C16.1302 42.7904 15.7632 42.1097 15.163 41.6677C15.3027 41.4725 15.3865 41.235 15.3909 40.9786C16.0484 41.0906 16.7729 41.3127 17.2737 41.5243C17.45 41.5987 17.5226 41.7442 17.5251 41.925ZM15.3327 37.7284C15.3324 37.7478 15.3242 37.7674 15.3072 37.7869C14.7727 38.3414 14.367 38.9989 14.2838 39.739C14.2454 39.7354 14.2065 39.7333 14.1672 39.7333C13.9517 39.7333 13.7491 39.7897 13.573 39.8881C13.3411 39.2626 13.1712 38.5241 13.104 37.9845C12.994 37.1008 15.3387 37.3928 15.3327 37.7284ZM15.2338 43.9953C15.2249 44.8487 12.7232 44.4774 13.027 44.1293C13.5617 43.5745 13.9676 42.9166 14.0505 42.1761C14.0889 42.1798 14.1278 42.1818 14.1672 42.1818C14.3824 42.1818 14.5848 42.1256 14.7608 42.0273C14.9929 42.653 15.1629 43.3919 15.2301 43.9317C15.2328 43.9536 15.2341 43.9748 15.2338 43.9953ZM14.54 40.9576C14.54 41.1654 14.375 41.3304 14.1672 41.3304C13.9593 41.3304 13.7943 41.1654 13.7943 40.9576C13.7943 40.7497 13.9593 40.5847 14.1672 40.5847C14.375 40.5847 14.54 40.7497 14.54 40.9576ZM13.5381 42.0069C13.1122 42.5207 12.5572 43.0374 12.1234 43.3655C11.372 43.9338 10.3865 41.4652 10.8507 41.5564C11.5986 41.7421 12.3713 41.7646 13.0542 41.466C13.1576 41.6911 13.3272 41.8799 13.5381 42.0069ZM13.1707 40.2483C13.0312 40.4436 12.9476 40.6812 12.9434 40.9377C12.2858 40.8257 11.5612 40.6035 11.0604 40.392C10.1926 40.0254 11.8376 37.9376 11.9907 38.3852C12.2039 39.1258 12.5707 39.8062 13.1707 40.2483Z" fill="#252424"/>
<ellipse cx="0.831077" cy="0.831089" rx="0.831077" ry="0.831089" transform="matrix(0 -1 -1 0 14.9976 41.7886)" fill="#252424"/>
<circle cx="5.80637" cy="5.80637" r="5.75099" transform="matrix(0 -1 -1 0 20.019 46.8047)" stroke="#252424" stroke-width="0.110765"/>
<circle cx="5.12685" cy="5.12685" r="5.07147" transform="matrix(0 -1 -1 0 19.3394 46.126)" stroke="#252424" stroke-width="0.110765"/>
<circle cx="4.38838" cy="4.38838" r="4.333" transform="matrix(0 -1 -1 0 18.6011 45.3872)" stroke="#252424" stroke-width="0.110765"/>
<circle cx="3.59091" cy="3.59091" r="3.53553" transform="matrix(0 -1 -1 0 17.8042 44.5898)" stroke="#252424" stroke-width="0.110765"/>
<line y1="-0.0553825" x2="13.7452" y2="-0.0553825" transform="matrix(0 1 1 0 14.2114 34.127)" stroke="#252424" stroke-width="0.110765"/>
<line y1="-0.0553825" x2="13.393" y2="-0.0553825" transform="matrix(1 -1.90182e-08 -1.90182e-08 -1 7.51611 40.999)" stroke="#252424" stroke-width="0.110765"/>
<rect x="26.8726" y="32.3438" width="10.4346" height="10.4346" rx="0.717573" fill="url(#paint2_linear_2163_8144)"/>
<circle cx="32.09" cy="37.5607" r="3.2734" fill="#F8C83D" stroke="#EABE40" stroke-width="0.358787"/>
<circle cx="32.0902" cy="37.5614" r="2.86171" fill="url(#paint3_linear_2163_8144)"/>
<circle cx="28.0959" cy="33.3258" r="0.458644" fill="#6E6E6F" fill-opacity="0.6"/>
<circle cx="36.1891" cy="33.3258" r="0.458644" fill="#6E6E6F" fill-opacity="0.6"/>
<circle cx="27.9157" cy="41.8825" r="0.458644" fill="#6E6E6F" fill-opacity="0.6"/>
<circle cx="36.3673" cy="41.8825" r="0.458644" fill="#6E6E6F" fill-opacity="0.6"/>
<mask id="path-22-outside-1_2163_8144" maskUnits="userSpaceOnUse" x="26.1118" y="35.4741" width="14" height="17" fill="black">
<rect fill="white" x="26.1118" y="35.4741" width="14" height="17"/>
<path fill-rule="evenodd" clip-rule="evenodd" d="M30.8837 46.395C30.8837 46.3663 30.8847 46.3379 30.8865 46.3096L30.9142 37.5136C30.9142 36.9395 31.3796 36.4741 31.9537 36.4741C32.5278 36.4741 32.9932 36.9395 32.9932 37.5136L32.9812 41.315C33.051 40.8087 33.4854 40.4187 34.0109 40.4187C34.5851 40.4187 35.0505 40.8841 35.0505 41.4582L35.05 41.9735C35.056 41.4045 35.5191 40.9452 36.0894 40.9452C36.6636 40.9452 37.1289 41.4106 37.1289 41.9847L37.1261 45.0853L37.1271 45.0853L37.1292 42.7504C37.1292 42.1763 37.5946 41.7109 38.1687 41.7109C38.7429 41.7109 39.2082 42.1763 39.2082 42.7504L39.2051 46.2199C39.2131 46.2786 39.2172 46.3385 39.2172 46.3994V48.0826C39.2172 48.826 38.6398 49.433 37.9084 49.4802V51.659H31.9062V49.428C31.6589 49.3592 31.439 49.2238 31.2671 49.0421L27.6998 47.3126C27.1822 47.0603 26.9647 46.4383 27.217 45.9208C27.4692 45.4032 28.0912 45.1857 28.6088 45.438L30.8837 46.5409V46.395Z"/>
</mask>
<path fill-rule="evenodd" clip-rule="evenodd" d="M30.8837 46.395C30.8837 46.3663 30.8847 46.3379 30.8865 46.3096L30.9142 37.5136C30.9142 36.9395 31.3796 36.4741 31.9537 36.4741C32.5278 36.4741 32.9932 36.9395 32.9932 37.5136L32.9812 41.315C33.051 40.8087 33.4854 40.4187 34.0109 40.4187C34.5851 40.4187 35.0505 40.8841 35.0505 41.4582L35.05 41.9735C35.056 41.4045 35.5191 40.9452 36.0894 40.9452C36.6636 40.9452 37.1289 41.4106 37.1289 41.9847L37.1261 45.0853L37.1271 45.0853L37.1292 42.7504C37.1292 42.1763 37.5946 41.7109 38.1687 41.7109C38.7429 41.7109 39.2082 42.1763 39.2082 42.7504L39.2051 46.2199C39.2131 46.2786 39.2172 46.3385 39.2172 46.3994V48.0826C39.2172 48.826 38.6398 49.433 37.9084 49.4802V51.659H31.9062V49.428C31.6589 49.3592 31.439 49.2238 31.2671 49.0421L27.6998 47.3126C27.1822 47.0603 26.9647 46.4383 27.217 45.9208C27.4692 45.4032 28.0912 45.1857 28.6088 45.438L30.8837 46.5409V46.395Z" fill="#F8C83D"/>
<path d="M30.8865 46.3096L31.3835 46.3414L31.3845 46.3263L31.3845 46.3112L30.8865 46.3096ZM30.9142 37.5136L31.4122 37.5152V37.5136H30.9142ZM32.9932 37.5136L33.4913 37.5152V37.5136H32.9932ZM32.9812 41.315L32.4832 41.3134L33.4746 41.383L32.9812 41.315ZM35.0505 41.4582L35.5485 41.4587V41.4582H35.0505ZM35.05 41.9735L34.5519 41.973L35.548 41.9788L35.05 41.9735ZM37.1289 41.9847L37.627 41.9852V41.9847H37.1289ZM37.1261 45.0853L36.6281 45.0848L36.6276 45.5829L37.1256 45.5833L37.1261 45.0853ZM37.1271 45.0853L37.1266 45.5833L37.6247 45.5838L37.6252 45.0857L37.1271 45.0853ZM37.1292 42.7504L37.6273 42.7508V42.7504H37.1292ZM39.2082 42.7504L39.7063 42.7508V42.7504H39.2082ZM39.2051 46.2199L38.707 46.2195L38.707 46.2534L38.7116 46.2871L39.2051 46.2199ZM37.9084 49.4802L37.8764 48.9832L37.4104 49.0132V49.4802H37.9084ZM37.9084 51.659V52.1571H38.4065V51.659H37.9084ZM31.9062 51.659H31.4082V52.1571H31.9062V51.659ZM31.9062 49.428H32.4043V49.0496L32.0398 48.9482L31.9062 49.428ZM31.2671 49.0421L31.6289 48.6998L31.5663 48.6337L31.4844 48.5939L31.2671 49.0421ZM27.6998 47.3126L27.4815 47.7603L27.4825 47.7607L27.6998 47.3126ZM27.217 45.9208L26.7693 45.7026L26.7693 45.7026L27.217 45.9208ZM28.6088 45.438L28.3906 45.8857L28.3915 45.8861L28.6088 45.438ZM30.8837 46.5409L30.6665 46.9891L31.3818 47.3359V46.5409H30.8837ZM30.3894 46.2778C30.3869 46.3166 30.3857 46.3557 30.3857 46.395H31.3818C31.3818 46.377 31.3824 46.3591 31.3835 46.3414L30.3894 46.2778ZM30.4161 37.5121L30.3884 46.308L31.3845 46.3112L31.4122 37.5152L30.4161 37.5121ZM31.9537 35.9761C31.1045 35.9761 30.4161 36.6644 30.4161 37.5136H31.4122C31.4122 37.2146 31.6546 36.9722 31.9537 36.9722V35.9761ZM33.4913 37.5136C33.4913 36.6644 32.8029 35.9761 31.9537 35.9761V36.9722C32.2527 36.9722 32.4951 37.2146 32.4951 37.5136H33.4913ZM33.4793 41.3166L33.4913 37.5152L32.4951 37.5121L32.4832 41.3134L33.4793 41.3166ZM34.0109 39.9206C33.2332 39.9206 32.5911 40.4976 32.4878 41.247L33.4746 41.383C33.5109 41.1197 33.7376 40.9168 34.0109 40.9168V39.9206ZM35.5485 41.4582C35.5485 40.609 34.8601 39.9206 34.0109 39.9206V40.9168C34.31 40.9168 34.5524 41.1592 34.5524 41.4582H35.5485ZM35.548 41.9739L35.5485 41.4587L34.5524 41.4578L34.5519 41.973L35.548 41.9739ZM36.0894 40.4472C35.2458 40.4472 34.5609 41.1266 34.552 41.9682L35.548 41.9788C35.5512 41.6825 35.7924 41.4433 36.0894 41.4433V40.4472ZM37.627 41.9847C37.627 41.1355 36.9386 40.4472 36.0894 40.4472V41.4433C36.3885 41.4433 36.6309 41.6857 36.6309 41.9847H37.627ZM37.6242 45.0857L37.627 41.9852L36.6309 41.9843L36.6281 45.0848L37.6242 45.0857ZM37.1276 44.5872L37.1266 44.5872L37.1256 45.5833L37.1266 45.5833L37.1276 44.5872ZM36.6312 42.7499L36.629 45.0848L37.6252 45.0857L37.6273 42.7508L36.6312 42.7499ZM38.1687 41.2128C37.3195 41.2128 36.6312 41.9012 36.6312 42.7504H37.6273C37.6273 42.4513 37.8697 42.2089 38.1687 42.2089V41.2128ZM39.7063 42.7504C39.7063 41.9012 39.0179 41.2128 38.1687 41.2128V42.2089C38.4678 42.2089 38.7102 42.4513 38.7102 42.7504H39.7063ZM39.7031 46.2204L39.7063 42.7508L38.7102 42.7499L38.707 46.2195L39.7031 46.2204ZM39.7153 46.3994C39.7153 46.316 39.7096 46.2336 39.6986 46.1527L38.7116 46.2871C38.7165 46.3236 38.7191 46.361 38.7191 46.3994H39.7153ZM39.7153 48.0826V46.3994H38.7191V48.0826H39.7153ZM37.9405 49.9772C38.9323 49.9133 39.7153 49.0902 39.7153 48.0826H38.7191C38.7191 48.5617 38.3472 48.9528 37.8764 48.9832L37.9405 49.9772ZM38.4065 51.659V49.4802H37.4104V51.659H38.4065ZM31.9062 52.1571H37.9084V51.1609H31.9062V52.1571ZM31.4082 49.428V51.659H32.4043V49.428H31.4082ZM30.9054 49.3845C31.1379 49.6301 31.4361 49.8142 31.7727 49.9078L32.0398 48.9482C31.8818 48.9042 31.7402 48.8174 31.6289 48.6998L30.9054 49.3845ZM27.4825 47.7607L31.0499 49.4903L31.4844 48.5939L27.917 46.8644L27.4825 47.7607ZM26.7693 45.7026C26.3953 46.4697 26.719 47.3886 27.4815 47.7603L27.918 46.8649C27.6453 46.732 27.5341 46.407 27.6647 46.139L26.7693 45.7026ZM28.827 44.9903C28.0598 44.6164 27.1409 44.94 26.7693 45.7026L27.6647 46.139C27.7976 45.8663 28.1226 45.7551 28.3906 45.8857L28.827 44.9903ZM31.101 46.0928L28.8261 44.9898L28.3915 45.8861L30.6665 46.9891L31.101 46.0928ZM30.3857 46.395V46.5409H31.3818V46.395H30.3857Z" fill="#988679" mask="url(#path-22-outside-1_2163_8144)"/>
<defs>
<linearGradient id="paint0_linear_2163_8144" x1="22.8726" y1="42.6488" x2="3.01142" y2="42.6488" gradientUnits="userSpaceOnUse">
<stop stop-color="#34901C"/>
<stop offset="1" stop-color="#3FB021"/>
</linearGradient>
<linearGradient id="paint1_linear_2163_8144" x1="12.6558" y1="29.8245" x2="1.42302" y2="29.8245" gradientUnits="userSpaceOnUse">
<stop stop-color="#34901C"/>
<stop offset="1" stop-color="#41AB25"/>
</linearGradient>
<linearGradient id="paint2_linear_2163_8144" x1="32.0899" y1="32.3438" x2="32.0899" y2="42.7783" gradientUnits="userSpaceOnUse">
<stop stop-color="#7F7F80"/>
<stop offset="1" stop-color="#777777"/>
</linearGradient>
<linearGradient id="paint3_linear_2163_8144" x1="32.0902" y1="34.6997" x2="32.0902" y2="40.4231" gradientUnits="userSpaceOnUse">
<stop stop-color="#F4CE60"/>
<stop offset="1" stop-color="#E4B93B"/>
</linearGradient>
</defs>
</svg>
