<svg width="24" height="52" viewBox="0 0 24 52" fill="none" xmlns="http://www.w3.org/2000/svg">
<path d="M19.0455 49.9465C22.2984 47.6443 23.4689 43.5341 23.1324 41.144C22.7959 38.7539 21.656 37.294 20.5781 36.2712C19.5003 35.2485 16.4114 33.8989 13.0724 34.385V33.6384H3.48388L3.32685 44.9165C4.79126 47.8603 6.3661 49.5274 9.29995 50.8503C12.2338 52.1732 16.1082 51.8744 19.0455 49.9465Z" fill="url(#paint0_linear_2163_8195)" stroke="#252424" stroke-width="0.201453"/>
<circle cx="6.87113" cy="6.87113" r="6.65528" transform="matrix(0 -1 -1 0 21.312 47.8721)" fill="#858484" stroke="#252424" stroke-width="0.431685"/>
<path d="M1.60049 33.6416H13.5864V33.2151H1.60049V33.6416Z" fill="#34901C" stroke="#252424" stroke-width="0.143895"/>
<path d="M9.16865 26.4741L12.9712 33.1748H2.31475L1.73845 26.6182L9.16865 26.4741Z" fill="url(#paint1_linear_2163_8195)" stroke="#252424" stroke-width="0.201453"/>
<path d="M0.997337 49.0942H3.38488L3.48779 33.1751H1.18259L0.997337 49.0942Z" fill="#858484" stroke="#252424" stroke-width="0.201453"/>
<path d="M0.504293 49.7524H0.985324L1.17434 32.6242H0.688783L0.504293 49.7524Z" fill="#858484" stroke="#252424" stroke-width="0.201453"/>
<path d="M17.9183 40.1834C17.9185 40.192 17.9185 40.2004 17.9183 40.2084C17.9156 40.3156 17.8787 40.3755 17.7989 40.3599C17.0511 40.1742 16.2786 40.1516 15.5959 40.45C15.4926 40.2247 15.323 40.0357 15.1122 39.9085C15.5379 39.395 16.0925 38.8787 16.5261 38.5508C17.1386 38.0875 17.9067 39.6423 17.9183 40.1835L17.9183 40.1834ZM17.8405 41.925C17.8502 42.6344 16.7808 43.8877 16.6588 43.5311C16.4456 42.7904 16.0787 42.1097 15.4784 41.6677C15.6181 41.4725 15.7019 41.235 15.7063 40.9786C16.3639 41.0906 17.0884 41.3127 17.5892 41.5243C17.7654 41.5987 17.838 41.7442 17.8405 41.925ZM15.6482 37.7284C15.6478 37.7478 15.6396 37.7674 15.6226 37.7869C15.0881 38.3414 14.6824 38.9989 14.5992 39.739C14.5608 39.7354 14.522 39.7333 14.4826 39.7333C14.2672 39.7333 14.0646 39.7897 13.8884 39.8881C13.6565 39.2626 13.4867 38.5241 13.4195 37.9845C13.3094 37.1008 15.6541 37.3928 15.6482 37.7284ZM15.5493 43.9953C15.5403 44.8487 13.0386 44.4774 13.3424 44.1293C13.8771 43.5745 14.283 42.9166 14.3659 42.1761C14.4044 42.1798 14.4432 42.1818 14.4826 42.1818C14.6978 42.1818 14.9002 42.1256 15.0763 42.0273C15.3083 42.653 15.4783 43.3919 15.5455 43.9317C15.5483 43.9536 15.5495 43.9748 15.5493 43.9953ZM14.8554 40.9576C14.8554 41.1654 14.6904 41.3304 14.4826 41.3304C14.2747 41.3304 14.1097 41.1654 14.1097 40.9576C14.1097 40.7497 14.2747 40.5847 14.4826 40.5847C14.6904 40.5847 14.8554 40.7497 14.8554 40.9576ZM13.8535 42.0069C13.4277 42.5207 12.8727 43.0374 12.4388 43.3655C11.6875 43.9338 10.7019 41.4652 11.1661 41.5564C11.914 41.7421 12.6868 41.7646 13.3696 41.466C13.473 41.6911 13.6426 41.8799 13.8535 42.0069ZM13.4862 40.2483C13.3466 40.4436 13.263 40.6812 13.2588 40.9377C12.6012 40.8257 11.8767 40.6035 11.3758 40.392C10.508 40.0254 12.153 37.9376 12.3062 38.3852C12.5193 39.1258 12.8862 39.8062 13.4862 40.2483Z" fill="#252424"/>
<ellipse cx="0.831077" cy="0.831089" rx="0.831077" ry="0.831089" transform="matrix(0 -1 -1 0 15.313 41.7886)" fill="#252424"/>
<circle cx="5.80637" cy="5.80637" r="5.75099" transform="matrix(0 -1 -1 0 20.3345 46.8047)" stroke="#252424" stroke-width="0.110765"/>
<circle cx="5.12685" cy="5.12685" r="5.07147" transform="matrix(0 -1 -1 0 19.6548 46.126)" stroke="#252424" stroke-width="0.110765"/>
<circle cx="4.38838" cy="4.38838" r="4.333" transform="matrix(0 -1 -1 0 18.9165 45.3872)" stroke="#252424" stroke-width="0.110765"/>
<circle cx="3.59091" cy="3.59091" r="3.53553" transform="matrix(0 -1 -1 0 18.1196 44.5898)" stroke="#252424" stroke-width="0.110765"/>
<line y1="-0.0553825" x2="13.7452" y2="-0.0553825" transform="matrix(0 1 1 0 14.5269 34.127)" stroke="#252424" stroke-width="0.110765"/>
<line y1="-0.0553825" x2="13.393" y2="-0.0553825" transform="matrix(1 -1.90182e-08 -1.90182e-08 -1 7.83154 40.999)" stroke="#252424" stroke-width="0.110765"/>
<defs>
<linearGradient id="paint0_linear_2163_8195" x1="23.188" y1="42.6488" x2="3.32685" y2="42.6488" gradientUnits="userSpaceOnUse">
<stop stop-color="#34901C"/>
<stop offset="1" stop-color="#3FB021"/>
</linearGradient>
<linearGradient id="paint1_linear_2163_8195" x1="12.9712" y1="29.8245" x2="1.73845" y2="29.8245" gradientUnits="userSpaceOnUse">
<stop stop-color="#34901C"/>
<stop offset="1" stop-color="#41AB25"/>
</linearGradient>
</defs>
</svg>
