<svg width="24" height="52" viewBox="0 0 24 52" fill="none" xmlns="http://www.w3.org/2000/svg">
<path d="M19.5421 49.9465C22.795 47.6443 23.9655 43.5341 23.629 41.144C23.2925 38.7539 22.1526 37.294 21.0747 36.2712C19.9968 35.2485 16.908 33.8989 13.569 34.385V33.6384H3.98046L3.82343 44.9165C5.28784 47.8603 6.86268 49.5274 9.79654 50.8503C12.7304 52.1732 16.6048 51.8744 19.5421 49.9465Z" fill="url(#paint0_linear_2163_8685)" stroke="#252424" stroke-width="0.201453"/>
<circle cx="6.87113" cy="6.87113" r="6.65528" transform="matrix(0 -1 -1 0 21.8086 47.8721)" fill="#858484" stroke="#252424" stroke-width="0.431685"/>
<path d="M2.09707 33.6416H14.083V33.2151H2.09707V33.6416Z" fill="#C24444" stroke="#252424" stroke-width="0.143895"/>
<path d="M9.66524 26.4741L13.4678 33.1748H2.81134L2.23503 26.6182L9.66524 26.4741Z" fill="url(#paint1_linear_2163_8685)" stroke="#252424" stroke-width="0.201453"/>
<path d="M1.49343 49.0942H3.88098L3.98389 33.1751H1.67868L1.49343 49.0942Z" fill="#858484" stroke="#252424" stroke-width="0.201453"/>
<path d="M1.00039 49.7524H1.48142L1.67043 32.6242H1.18488L1.00039 49.7524Z" fill="#858484" stroke="#252424" stroke-width="0.201453"/>
<path d="M18.4144 40.1834C18.4146 40.192 18.4146 40.2004 18.4144 40.2084C18.4117 40.3156 18.3748 40.3755 18.295 40.3599C17.5472 40.1742 16.7747 40.1516 16.092 40.45C15.9887 40.2247 15.8191 40.0357 15.6083 39.9085C16.034 39.395 16.5886 38.8787 17.0222 38.5508C17.6347 38.0875 18.4028 39.6423 18.4144 40.1835L18.4144 40.1834ZM18.3366 41.925C18.3463 42.6344 17.2769 43.8877 17.1549 43.5311C16.9417 42.7904 16.5747 42.1097 15.9745 41.6677C16.1142 41.4725 16.198 41.235 16.2024 40.9786C16.86 41.0906 17.5845 41.3127 18.0853 41.5243C18.2615 41.5987 18.3341 41.7442 18.3366 41.925ZM16.1442 37.7284C16.1439 37.7478 16.1357 37.7674 16.1187 37.7869C15.5842 38.3414 15.1785 38.9989 15.0953 39.739C15.0569 39.7354 15.0181 39.7333 14.9787 39.7333C14.7633 39.7333 14.5607 39.7897 14.3845 39.8881C14.1526 39.2626 13.9827 38.5241 13.9155 37.9845C13.8055 37.1008 16.1502 37.3928 16.1442 37.7284ZM16.0454 43.9953C16.0364 44.8487 13.5347 44.4774 13.8385 44.1293C14.3732 43.5745 14.7791 42.9166 14.862 42.1761C14.9005 42.1798 14.9393 42.1818 14.9787 42.1818C15.1939 42.1818 15.3963 42.1256 15.5724 42.0273C15.8044 42.653 15.9744 43.3919 16.0416 43.9317C16.0444 43.9536 16.0456 43.9748 16.0454 43.9953ZM15.3515 40.9576C15.3515 41.1654 15.1865 41.3304 14.9787 41.3304C14.7708 41.3304 14.6058 41.1654 14.6058 40.9576C14.6058 40.7497 14.7708 40.5847 14.9787 40.5847C15.1865 40.5847 15.3515 40.7497 15.3515 40.9576ZM14.3496 42.0069C13.9238 42.5207 13.3688 43.0374 12.9349 43.3655C12.1836 43.9338 11.198 41.4652 11.6622 41.5564C12.4101 41.7421 13.1828 41.7646 13.8657 41.466C13.9691 41.6911 14.1387 41.8799 14.3496 42.0069ZM13.9823 40.2483C13.8427 40.4436 13.7591 40.6812 13.7549 40.9377C13.0973 40.8257 12.3727 40.6035 11.8719 40.392C11.0041 40.0254 12.6491 37.9376 12.8023 38.3852C13.0154 39.1258 13.3823 39.8062 13.9823 40.2483Z" fill="#252424"/>
<ellipse cx="0.831077" cy="0.831089" rx="0.831077" ry="0.831089" transform="matrix(0 -1 -1 0 15.8096 41.7886)" fill="#252424"/>
<circle cx="5.80637" cy="5.80637" r="5.75099" transform="matrix(0 -1 -1 0 20.8306 46.8047)" stroke="#252424" stroke-width="0.110765"/>
<circle cx="5.12685" cy="5.12685" r="5.07147" transform="matrix(0 -1 -1 0 20.1519 46.126)" stroke="#252424" stroke-width="0.110765"/>
<circle cx="4.38838" cy="4.38838" r="4.333" transform="matrix(0 -1 -1 0 19.4131 45.3872)" stroke="#252424" stroke-width="0.110765"/>
<circle cx="3.59091" cy="3.59091" r="3.53553" transform="matrix(0 -1 -1 0 18.6162 44.5898)" stroke="#252424" stroke-width="0.110765"/>
<line y1="-0.0553825" x2="13.7452" y2="-0.0553825" transform="matrix(0 1 1 0 15.0239 34.127)" stroke="#252424" stroke-width="0.110765"/>
<line y1="-0.0553825" x2="13.393" y2="-0.0553825" transform="matrix(1 -1.90182e-08 -1.90182e-08 -1 8.32861 40.999)" stroke="#252424" stroke-width="0.110765"/>
<defs>
<linearGradient id="paint0_linear_2163_8685" x1="4.3413" y1="32.7568" x2="34.1638" y2="58.44" gradientUnits="userSpaceOnUse">
<stop stop-color="#A44040"/>
<stop offset="1" stop-color="#DF2121"/>
<stop offset="1" stop-color="#CD3636"/>
</linearGradient>
<linearGradient id="paint1_linear_2163_8685" x1="13.4678" y1="29.8245" x2="2.23503" y2="29.8245" gradientUnits="userSpaceOnUse">
<stop stop-color="#A44040"/>
<stop offset="1" stop-color="#D74747"/>
</linearGradient>
</defs>
</svg>
