<svg width="41" height="53" viewBox="0 0 41 53" fill="none" xmlns="http://www.w3.org/2000/svg">
<path d="M19.2267 49.9465C22.4796 47.6443 23.6501 43.5341 23.3136 41.144C22.9771 38.7539 21.8371 37.294 20.7593 36.2712C19.6814 35.2485 16.5926 33.8989 13.2536 34.385V33.6384H3.66503L3.508 44.9165C4.97241 47.8603 6.54725 49.5274 9.48111 50.8503C12.415 52.1732 16.2893 51.8744 19.2267 49.9465Z" fill="url(#paint0_linear_2163_8367)" stroke="#252424" stroke-width="0.201453"/>
<circle cx="6.87113" cy="6.87113" r="6.65528" transform="matrix(0 -1 -1 0 21.4932 47.8721)" fill="#858484" stroke="#252424" stroke-width="0.431685"/>
<path d="M1.78164 33.6416H13.7676V33.2151H1.78164V33.6416Z" fill="#C24444" stroke="#252424" stroke-width="0.143895"/>
<path d="M9.34981 26.4741L13.1523 33.1748H2.49591L1.9196 26.6182L9.34981 26.4741Z" fill="url(#paint1_linear_2163_8367)" stroke="#252424" stroke-width="0.201453"/>
<path d="M1.178 49.0942H3.56555L3.66846 33.1751H1.36325L1.178 49.0942Z" fill="#858484" stroke="#252424" stroke-width="0.201453"/>
<path d="M0.684957 49.7524H1.16599L1.355 32.6242H0.869447L0.684957 49.7524Z" fill="#858484" stroke="#252424" stroke-width="0.201453"/>
<path d="M18.099 40.1834C18.0992 40.192 18.0991 40.2004 18.099 40.2084C18.0963 40.3156 18.0593 40.3755 17.9795 40.3599C17.2318 40.1742 16.4592 40.1516 15.7766 40.45C15.6732 40.2247 15.5037 40.0357 15.2928 39.9085C15.7185 39.395 16.2731 38.8787 16.7067 38.5508C17.3192 38.0875 18.0874 39.6423 18.099 40.1835L18.099 40.1834ZM18.0212 41.925C18.0309 42.6344 16.9614 43.8877 16.8394 43.5311C16.6263 42.7904 16.2593 42.1097 15.6591 41.6677C15.7988 41.4725 15.8826 41.235 15.887 40.9786C16.5445 41.0906 17.269 41.3127 17.7698 41.5243C17.9461 41.5987 18.0187 41.7442 18.0212 41.925ZM15.8288 37.7284C15.8285 37.7478 15.8203 37.7674 15.8032 37.7869C15.2688 38.3414 14.8631 38.9989 14.7799 39.739C14.7415 39.7354 14.7026 39.7333 14.6632 39.7333C14.4478 39.7333 14.2452 39.7897 14.0691 39.8881C13.8372 39.2626 13.6673 38.5241 13.6001 37.9845C13.4901 37.1008 15.8348 37.3928 15.8288 37.7284ZM15.7299 43.9953C15.721 44.8487 13.2193 44.4774 13.5231 44.1293C14.0578 43.5745 14.4637 42.9166 14.5466 42.1761C14.585 42.1798 14.6239 42.1818 14.6632 42.1818C14.8785 42.1818 15.0809 42.1256 15.2569 42.0273C15.489 42.653 15.659 43.3919 15.7262 43.9317C15.7289 43.9536 15.7302 43.9748 15.7299 43.9953ZM15.0361 40.9576C15.0361 41.1654 14.8711 41.3304 14.6632 41.3304C14.4554 41.3304 14.2904 41.1654 14.2904 40.9576C14.2904 40.7497 14.4554 40.5847 14.6632 40.5847C14.8711 40.5847 15.0361 40.7497 15.0361 40.9576ZM14.0341 42.0069C13.6083 42.5207 13.0533 43.0374 12.6195 43.3655C11.8681 43.9338 10.8826 41.4652 11.3468 41.5564C12.0947 41.7421 12.8674 41.7646 13.5503 41.466C13.6537 41.6911 13.8233 41.8799 14.0341 42.0069ZM13.6668 40.2483C13.5273 40.4436 13.4437 40.6812 13.4395 40.9377C12.7819 40.8257 12.0573 40.6035 11.5565 40.392C10.6887 40.0254 12.3337 37.9376 12.4868 38.3852C12.7 39.1258 13.0668 39.8062 13.6668 40.2483Z" fill="#252424"/>
<ellipse cx="0.831077" cy="0.831089" rx="0.831077" ry="0.831089" transform="matrix(0 -1 -1 0 15.4941 41.7886)" fill="#252424"/>
<circle cx="5.80637" cy="5.80637" r="5.75099" transform="matrix(0 -1 -1 0 20.5151 46.8047)" stroke="#252424" stroke-width="0.110765"/>
<circle cx="5.12685" cy="5.12685" r="5.07147" transform="matrix(0 -1 -1 0 19.8364 46.126)" stroke="#252424" stroke-width="0.110765"/>
<circle cx="4.38838" cy="4.38838" r="4.333" transform="matrix(0 -1 -1 0 19.0977 45.3872)" stroke="#252424" stroke-width="0.110765"/>
<circle cx="3.59091" cy="3.59091" r="3.53553" transform="matrix(0 -1 -1 0 18.3008 44.5898)" stroke="#252424" stroke-width="0.110765"/>
<line y1="-0.0553825" x2="13.7452" y2="-0.0553825" transform="matrix(0 1 1 0 14.7085 34.127)" stroke="#252424" stroke-width="0.110765"/>
<line y1="-0.0553825" x2="13.393" y2="-0.0553825" transform="matrix(1 -1.90182e-08 -1.90182e-08 -1 8.01318 40.999)" stroke="#252424" stroke-width="0.110765"/>
<rect x="27.3691" y="32.3438" width="10.4346" height="10.4346" rx="0.717573" fill="url(#paint2_linear_2163_8367)"/>
<circle cx="32.5866" cy="37.5607" r="3.2734" fill="#D65757" stroke="#D65757" stroke-width="0.358787"/>
<circle cx="32.5868" cy="37.5614" r="2.86171" fill="url(#paint3_linear_2163_8367)"/>
<circle cx="28.5919" cy="33.3258" r="0.458644" fill="#9090A6" fill-opacity="0.6"/>
<circle cx="36.6852" cy="33.3258" r="0.458644" fill="#9090A6" fill-opacity="0.6"/>
<circle cx="28.4123" cy="41.8825" r="0.458644" fill="#9090A6" fill-opacity="0.6"/>
<circle cx="36.8644" cy="41.8825" r="0.458644" fill="#9090A6" fill-opacity="0.6"/>
<mask id="path-22-outside-1_2163_8367" maskUnits="userSpaceOnUse" x="26.6084" y="35.4741" width="14" height="17" fill="black">
<rect fill="white" x="26.6084" y="35.4741" width="14" height="17"/>
<path fill-rule="evenodd" clip-rule="evenodd" d="M31.3803 46.3949C31.3803 46.3662 31.3812 46.3377 31.383 46.3095L31.4108 37.5136C31.4108 36.9395 31.8761 36.4741 32.4503 36.4741C33.0244 36.4741 33.4898 36.9395 33.4898 37.5136L33.4778 41.3152C33.5476 40.8089 33.982 40.4189 34.5075 40.4189C35.0816 40.4189 35.547 40.8843 35.547 41.4585L35.5466 41.976C35.5511 41.4058 36.0147 40.9449 36.586 40.9449C37.1602 40.9449 37.6255 41.4103 37.6255 41.9844L37.6227 45.0851L37.6235 45.0851L37.6256 42.7504C37.6256 42.1763 38.091 41.7109 38.6652 41.7109C39.2393 41.7109 39.7047 42.1763 39.7047 42.7504L39.7015 46.2186C39.7096 46.2777 39.7138 46.338 39.7138 46.3993V48.0825C39.7138 48.8258 39.1365 49.4327 38.4053 49.48V51.6586H32.4031V49.4279C32.1558 49.3592 31.936 49.2239 31.7641 49.0423L28.1963 47.3126C27.6788 47.0604 27.4613 46.4384 27.7136 45.9208C27.9658 45.4033 28.5878 45.1858 29.1054 45.438L31.3803 46.541V46.3949Z"/>
</mask>
<path fill-rule="evenodd" clip-rule="evenodd" d="M31.3803 46.3949C31.3803 46.3662 31.3812 46.3377 31.383 46.3095L31.4108 37.5136C31.4108 36.9395 31.8761 36.4741 32.4503 36.4741C33.0244 36.4741 33.4898 36.9395 33.4898 37.5136L33.4778 41.3152C33.5476 40.8089 33.982 40.4189 34.5075 40.4189C35.0816 40.4189 35.547 40.8843 35.547 41.4585L35.5466 41.976C35.5511 41.4058 36.0147 40.9449 36.586 40.9449C37.1602 40.9449 37.6255 41.4103 37.6255 41.9844L37.6227 45.0851L37.6235 45.0851L37.6256 42.7504C37.6256 42.1763 38.091 41.7109 38.6652 41.7109C39.2393 41.7109 39.7047 42.1763 39.7047 42.7504L39.7015 46.2186C39.7096 46.2777 39.7138 46.338 39.7138 46.3993V48.0825C39.7138 48.8258 39.1365 49.4327 38.4053 49.48V51.6586H32.4031V49.4279C32.1558 49.3592 31.936 49.2239 31.7641 49.0423L28.1963 47.3126C27.6788 47.0604 27.4613 46.4384 27.7136 45.9208C27.9658 45.4033 28.5878 45.1858 29.1054 45.438L31.3803 46.541V46.3949Z" fill="#D65757"/>
<path d="M31.383 46.3095L31.8801 46.3413L31.881 46.3262L31.8811 46.311L31.383 46.3095ZM31.4108 37.5136L31.9088 37.5152V37.5136H31.4108ZM33.4898 37.5136L33.9878 37.5152V37.5136H33.4898ZM33.4778 41.3152L32.9797 41.3137L33.9712 41.3832L33.4778 41.3152ZM35.547 41.4585L36.0451 41.4589V41.4585H35.547ZM35.5466 41.976L35.0485 41.9756L36.0446 41.98L35.5466 41.976ZM37.6255 41.9844L38.1236 41.9849V41.9844H37.6255ZM37.6227 45.0851L37.1247 45.0847L37.1242 45.5826L37.6221 45.5832L37.6227 45.0851ZM37.6235 45.0851L37.6229 45.5832L38.1211 45.5838L38.1216 45.0856L37.6235 45.0851ZM37.6256 42.7504L38.1237 42.7509V42.7504H37.6256ZM39.7047 42.7504L40.2027 42.7509V42.7504H39.7047ZM39.7015 46.2186L39.2034 46.2182L39.2034 46.2524L39.2081 46.2863L39.7015 46.2186ZM38.4053 49.48L38.3731 48.983L37.9072 49.0131V49.48H38.4053ZM38.4053 51.6586V52.1567H38.9033V51.6586H38.4053ZM32.4031 51.6586H31.905V52.1567H32.4031V51.6586ZM32.4031 49.4279H32.9012V49.0494L32.5365 48.9481L32.4031 49.4279ZM31.7641 49.0423L32.1257 48.6999L32.0632 48.6338L31.9813 48.5942L31.7641 49.0423ZM28.1963 47.3126L27.9781 47.7604L27.9791 47.7608L28.1963 47.3126ZM27.7136 45.9208L28.1613 46.139H28.1613L27.7136 45.9208ZM29.1054 45.438L28.8872 45.8858L28.8881 45.8862L29.1054 45.438ZM31.3803 46.541L31.163 46.9891L31.8784 47.336V46.541H31.3803ZM30.886 46.2777C30.8835 46.3165 30.8823 46.3556 30.8823 46.3949H31.8784C31.8784 46.3768 31.8789 46.3589 31.8801 46.3413L30.886 46.2777ZM30.9127 37.5121L30.885 46.3079L31.8811 46.311L31.9088 37.5152L30.9127 37.5121ZM32.4503 35.9761C31.6011 35.9761 30.9127 36.6644 30.9127 37.5136H31.9088C31.9088 37.2146 32.1512 36.9722 32.4503 36.9722V35.9761ZM33.9878 37.5136C33.9878 36.6644 33.2995 35.9761 32.4503 35.9761V36.9722C32.7493 36.9722 32.9917 37.2146 32.9917 37.5136H33.9878ZM33.9758 41.3168L33.9878 37.5152L32.9917 37.5121L32.9797 41.3137L33.9758 41.3168ZM34.5075 39.9209C33.7298 39.9209 33.0877 40.4978 32.9844 41.2473L33.9712 41.3832C34.0075 41.12 34.2342 40.917 34.5075 40.917V39.9209ZM36.0451 41.4585C36.0451 40.6093 35.3567 39.9209 34.5075 39.9209V40.917C34.8066 40.917 35.049 41.1594 35.049 41.4585H36.0451ZM36.0446 41.9765L36.0451 41.4589L35.049 41.458L35.0485 41.9756L36.0446 41.9765ZM36.586 40.4469C35.741 40.4469 35.0552 41.1285 35.0485 41.9721L36.0446 41.98C36.0469 41.683 36.2885 41.443 36.586 41.443V40.4469ZM38.1236 41.9844C38.1236 41.1352 37.4352 40.4469 36.586 40.4469V41.443C36.8851 41.443 37.1275 41.6854 37.1275 41.9844H38.1236ZM38.1208 45.0856L38.1236 41.9849L37.1275 41.984L37.1247 45.0847L38.1208 45.0856ZM37.6241 44.5871L37.6233 44.5871L37.6221 45.5832L37.6229 45.5832L37.6241 44.5871ZM37.1276 42.75L37.1255 45.0847L38.1216 45.0856L38.1237 42.7509L37.1276 42.75ZM38.6652 41.2129C37.816 41.2129 37.1276 41.9012 37.1276 42.7504H38.1237C38.1237 42.4514 38.3661 42.209 38.6652 42.209V41.2129ZM40.2027 42.7504C40.2027 41.9012 39.5143 41.2129 38.6652 41.2129V42.209C38.9642 42.209 39.2066 42.4514 39.2066 42.7504H40.2027ZM40.1996 46.2191L40.2027 42.7509L39.2066 42.75L39.2034 46.2182L40.1996 46.2191ZM40.2118 46.3993C40.2118 46.3153 40.2061 46.2324 40.195 46.151L39.2081 46.2863C39.2131 46.3229 39.2157 46.3606 39.2157 46.3993H40.2118ZM40.2118 48.0825V46.3993H39.2157V48.0825H40.2118ZM38.4374 49.977C39.4291 49.9129 40.2118 49.09 40.2118 48.0825H39.2157C39.2157 48.5615 38.8439 48.9526 38.3731 48.983L38.4374 49.977ZM38.9033 51.6586V49.48H37.9072V51.6586H38.9033ZM32.4031 52.1567H38.4053V51.1606H32.4031V52.1567ZM31.905 49.4279V51.6586H32.9012V49.4279H31.905ZM31.4024 49.3848C31.635 49.6303 31.9331 49.8142 32.2697 49.9078L32.5365 48.9481C32.3786 48.9042 32.237 48.8174 32.1257 48.6999L31.4024 49.3848ZM27.9791 47.7608L31.5468 49.4905L31.9813 48.5942L28.4136 46.8645L27.9791 47.7608ZM27.2658 45.7026C26.8919 46.4698 27.2156 47.3887 27.9781 47.7604L28.4146 46.8649C28.1419 46.732 28.0307 46.407 28.1613 46.139L27.2658 45.7026ZM29.3236 44.9903C28.5564 44.6164 27.6375 44.9401 27.2658 45.7026L28.1613 46.139C28.2942 45.8664 28.6192 45.7551 28.8872 45.8858L29.3236 44.9903ZM31.5976 46.0928L29.3226 44.9899L28.8881 45.8862L31.163 46.9891L31.5976 46.0928ZM30.8823 46.3949V46.541H31.8784V46.3949H30.8823Z" fill="#E0D6CE" mask="url(#path-22-outside-1_2163_8367)"/>
<defs>
<linearGradient id="paint0_linear_2163_8367" x1="4.02587" y1="32.7568" x2="33.8484" y2="58.44" gradientUnits="userSpaceOnUse">
<stop stop-color="#A44040"/>
<stop offset="1" stop-color="#DF2121"/>
<stop offset="1" stop-color="#CD3636"/>
</linearGradient>
<linearGradient id="paint1_linear_2163_8367" x1="13.1523" y1="29.8245" x2="1.9196" y2="29.8245" gradientUnits="userSpaceOnUse">
<stop stop-color="#A44040"/>
<stop offset="1" stop-color="#D74747"/>
</linearGradient>
<linearGradient id="paint2_linear_2163_8367" x1="32.5864" y1="32.3438" x2="32.5864" y2="42.7783" gradientUnits="userSpaceOnUse">
<stop stop-color="#7F7F80"/>
<stop offset="1" stop-color="#777777"/>
</linearGradient>
<linearGradient id="paint3_linear_2163_8367" x1="32.5868" y1="34.6997" x2="32.5868" y2="40.4231" gradientUnits="userSpaceOnUse">
<stop stop-color="#DB3D3D"/>
<stop offset="1" stop-color="#BF7F7F"/>
</linearGradient>
</defs>
</svg>
